<?xml version="1.0" standalone="no"?>
<!DOCTYPE svg PUBLIC "-//W3C//DTD SVG 20010904//EN"
 "http://www.w3.org/TR/2001/REC-SVG-20010904/DTD/svg10.dtd">
<svg version="1.0" xmlns="http://www.w3.org/2000/svg"
 width="2400.000000pt" height="869.000000pt" viewBox="0 0 2400.000000 869.000000"
 preserveAspectRatio="xMidYMid meet">
<metadata>
Created by potrace 1.13, written by Peter Selinger 2001-2015
</metadata>
<g transform="translate(0.000000,869.000000) scale(0.100000,-0.100000)"
fill="#000000" stroke="none">
<path d="M23400 8660 c5 -16 11 -34 15 -40 3 -5 -5 -14 -18 -19 -34 -13 -52
-61 -22 -61 8 0 15 7 15 15 0 8 7 15 15 15 8 0 15 -9 15 -20 0 -12 5 -17 13
-14 28 10 63 -14 74 -51 9 -27 9 -35 0 -32 -7 2 -14 12 -16 22 -3 17 -24 45
-34 45 -3 0 -7 -12 -10 -27 -4 -20 2 -34 24 -57 28 -29 31 -30 43 -13 14 19
36 23 36 7 0 -5 -7 -10 -15 -10 -17 0 -20 -17 -4 -22 7 -2 5 -9 -5 -17 -14
-12 -16 -12 -11 0 4 11 -4 14 -35 14 -43 -1 -47 4 -27 24 10 10 8 14 -6 23
-15 8 -18 17 -12 45 l6 35 -33 -7 c-49 -11 -53 -16 -28 -35 24 -18 33 -60 15
-72 -7 -5 -6 -14 3 -28 10 -16 10 -20 0 -21 -61 -8 -81 3 -72 37 4 14 0 29 -9
39 -21 21 -30 19 -17 -4 14 -28 13 -31 -12 -31 -13 0 -34 -9 -48 -20 l-25 -19
40 4 c22 3 33 2 25 -1 -8 -4 -25 -15 -37 -26 -23 -21 -43 -17 -43 9 0 9 -3 14
-6 10 -9 -9 19 -67 33 -67 7 0 18 9 25 20 14 23 28 26 28 8 0 -8 15 -14 35
-15 38 -2 43 4 20 21 -12 9 -4 11 35 12 57 1 64 -9 19 -25 -19 -7 -28 -15 -23
-22 4 -8 3 -9 -4 -5 -19 11 -35 -3 -22 -19 16 -20 3 -40 -16 -24 -8 6 -14 17
-14 24 0 9 -19 13 -65 13 -57 -1 -65 -3 -65 -19 0 -14 -7 -19 -26 -19 -14 0
-23 -4 -19 -10 3 -5 15 -10 25 -10 25 0 50 -27 49 -53 -1 -20 -2 -19 -12 6
-12 30 -34 31 -29 2 3 -13 -1 -16 -13 -11 -9 3 -25 6 -36 6 -13 0 -19 7 -19
24 0 13 -6 27 -12 29 -7 3 -4 6 7 7 20 1 20 1 1 12 -15 8 -21 8 -24 0 -6 -20
-22 -2 -23 26 0 15 -3 21 -6 15 -2 -7 -13 -13 -24 -13 -25 0 -24 -16 1 -32 27
-17 25 -26 -4 -21 -16 3 -31 -3 -45 -18 -20 -22 -20 -24 -4 -31 28 -10 33 -9
33 7 0 18 12 19 27 4 8 -8 15 -6 25 10 17 28 28 27 28 -2 0 -13 9 -32 20 -42
25 -23 17 -35 -23 -36 l-32 -1 33 -10 c32 -11 45 -42 20 -50 -9 -3 -8 -11 4
-30 15 -23 15 -28 3 -38 -24 -20 -17 -30 15 -23 18 3 30 1 30 -5 0 -14 -8 -18
-47 -27 -26 -5 -33 -3 -33 9 0 9 -4 16 -10 16 -5 0 -10 -8 -10 -17 0 -10 -5
-25 -10 -33 -8 -13 -11 -13 -22 -1 -10 11 -10 14 0 18 15 6 16 33 0 33 -6 0
-4 7 5 18 22 24 21 29 -4 42 -15 9 -24 8 -35 -1 -8 -6 -17 -9 -21 -5 -4 3 2
13 13 21 16 12 17 14 3 15 -16 0 -29 -19 -29 -41 0 -6 15 -7 35 -3 42 8 44 -3
8 -33 -25 -20 -26 -22 -8 -23 17 0 15 -3 -8 -15 -15 -8 -35 -11 -43 -8 -14 5
-14 3 -2 -17 10 -18 10 -24 1 -27 -7 -3 -13 -12 -13 -21 1 -15 3 -14 16 3 11
14 19 17 30 10 27 -17 17 -29 -36 -41 -28 -6 -59 -19 -69 -28 -16 -15 -19 -15
-31 -1 -16 19 -27 19 -27 0 0 -8 9 -15 19 -15 21 0 23 -11 6 -28 -10 -10 -10
-15 1 -21 9 -6 3 -10 -20 -13 -19 -3 -35 -2 -37 3 -6 14 -22 10 -22 -5 0 -21
-71 -60 -90 -49 -10 7 -20 5 -32 -6 -15 -15 -13 -16 23 -18 21 -1 41 2 44 7
11 18 38 11 33 -8 -4 -15 -1 -18 16 -15 25 5 53 -35 43 -61 -11 -27 -35 -19
-29 9 3 21 0 25 -18 25 -19 0 -22 -4 -18 -34 4 -34 -7 -38 -39 -14 -15 12 -29
-10 -14 -25 19 -19 13 -37 -11 -34 -30 3 -55 34 -39 50 17 17 13 35 -9 47 -16
8 -21 6 -31 -11 -10 -19 -9 -21 5 -16 18 7 23 -18 5 -28 -12 -8 -49 27 -49 46
0 7 -9 5 -26 -6 -33 -21 -40 -14 -21 24 13 26 13 30 0 35 -12 5 -13 9 -3 21
16 19 7 30 -17 20 -10 -4 -13 -9 -7 -12 15 -5 2 -65 -15 -71 -11 -4 -13 3 -7
28 9 46 -12 92 -39 86 -11 -3 -27 -1 -35 4 -13 9 -13 10 0 10 11 0 11 3 -3 11
-10 6 -26 9 -36 6 -19 -5 -36 10 -46 42 -4 12 -12 20 -18 18 -15 -5 -16 -46
-1 -55 7 -4 13 -11 13 -17 0 -5 14 -17 31 -26 25 -14 28 -19 16 -28 -10 -8
-16 -9 -21 -1 -9 15 -25 12 -25 -5 0 -8 5 -15 10 -15 6 0 2 -10 -10 -22 -22
-24 -26 -38 -10 -38 6 0 10 5 10 12 0 9 3 9 13 -1 10 -10 8 -14 -6 -22 -9 -6
-15 -15 -11 -20 12 -20 10 -69 -2 -69 -15 0 -46 59 -38 71 3 5 -2 9 -11 9 -9
0 -15 -6 -14 -12 5 -40 -1 -45 -43 -43 -29 2 -51 -4 -68 -17 -31 -23 -64 -15
-57 13 3 11 0 19 -8 19 -7 0 -12 8 -11 18 1 12 -6 17 -24 17 -18 0 -25 -5 -24
-18 3 -26 -17 -16 -37 19 -10 18 -12 31 -6 35 12 8 -1 32 -13 24 -4 -3 -11
-23 -15 -45 -4 -25 -12 -40 -21 -40 -8 0 -14 -4 -14 -10 0 -5 9 -10 20 -10 11
0 20 -6 20 -14 0 -8 3 -23 6 -33 5 -15 4 -15 -5 -3 -8 12 -13 12 -22 3 -9 -9
-9 -16 -1 -25 6 -8 8 -18 4 -24 -8 -12 -57 -39 -86 -48 -13 -5 -17 -13 -14
-31 6 -27 -9 -35 -18 -10 -5 12 -10 13 -20 4 -17 -14 -18 -36 -1 -42 6 -2 8
-8 4 -13 -4 -4 -17 -3 -27 4 -25 16 -30 15 -30 -3 0 -9 9 -15 24 -15 35 0 38
-11 11 -42 -15 -17 -30 -26 -39 -22 -19 7 -19 9 -6 35 12 22 5 25 -13 7 -17
-19 -15 -52 6 -72 18 -19 19 -39 2 -36 -6 1 -9 8 -7 16 3 17 -10 18 -25 3 -13
-13 -58 13 -74 43 -13 25 -7 31 30 30 35 -1 60 23 43 40 -8 8 -15 8 -24 1 -7
-6 -30 -9 -50 -7 -28 3 -38 1 -38 -10 0 -15 -27 -29 -34 -18 -3 4 2 22 11 40
16 33 13 49 -7 37 -10 -6 -32 -50 -34 -68 -1 -4 -7 -12 -15 -16 -9 -6 -12 -18
-7 -35 5 -19 3 -26 -9 -26 -27 0 -16 -19 21 -35 20 -8 49 -15 65 -15 31 0 36
-9 17 -28 -15 -15 -29 -16 -26 -1 2 6 -18 12 -45 14 -27 1 -46 1 -43 -2 2 -3
1 -16 -5 -29 -12 -33 6 -39 53 -20 38 16 48 13 48 -16 0 -12 7 -18 23 -18 12
0 33 -3 47 -6 14 -3 20 -2 14 3 -6 4 -14 19 -18 33 -6 22 -3 20 24 -12 31 -36
60 -50 60 -27 0 6 9 4 21 -5 12 -8 27 -12 34 -10 7 3 27 -1 43 -10 16 -8 52
-17 80 -20 27 -3 61 -8 76 -12 18 -4 26 -2 26 6 0 9 6 8 19 -4 10 -9 25 -14
33 -11 9 4 23 -1 32 -10 9 -9 24 -14 32 -11 9 3 21 3 27 -1 7 -4 26 -8 42 -9
17 -1 48 -7 70 -13 22 -7 47 -12 55 -12 8 -1 26 -4 40 -9 23 -8 86 -18 165
-25 16 -2 37 1 46 6 12 6 21 4 30 -7 8 -10 21 -13 37 -9 15 4 28 1 33 -6 8
-14 17 -16 108 -23 36 -3 68 -11 72 -17 4 -6 12 -8 18 -4 7 4 18 1 27 -5 16
-14 114 -21 114 -8 0 4 7 8 16 8 8 0 13 -4 9 -9 -9 -16 13 -23 35 -11 16 9 20
8 20 -5 0 -15 16 -20 58 -16 13 1 21 -2 18 -8 -7 -11 3 -41 14 -41 5 0 12 9
15 20 8 26 25 16 25 -16 0 -17 6 -24 18 -24 26 0 34 11 21 27 -9 10 -5 13 19
13 17 0 34 -5 38 -11 3 -6 19 -9 35 -5 15 3 31 1 34 -4 3 -6 -2 -10 -12 -10
-17 -1 -17 -1 0 -14 20 -16 22 -32 4 -39 -7 -2 -13 -18 -14 -33 l-2 -29 14 25
c15 28 20 21 28 -40 3 -26 -1 -39 -17 -53 l-21 -18 30 6 c39 9 42 12 27 35
-17 28 -15 51 3 44 18 -7 20 11 3 22 -8 5 -6 11 6 20 10 7 16 20 14 30 -2 9 3
19 10 21 6 3 12 -2 12 -11 0 -9 7 -16 15 -16 8 0 15 -4 15 -10 0 -5 9 -10 19
-10 11 0 22 -4 25 -9 10 -16 -18 -56 -39 -56 -53 1 -77 -27 -30 -35 32 -6 40
-35 18 -66 -12 -16 -13 -15 -7 14 l6 32 -38 -14 c-22 -7 -45 -11 -51 -9 -9 3
-11 -5 -7 -29 l5 -33 -23 30 c-13 16 -23 41 -24 55 0 31 -12 52 -25 44 -5 -3
-7 -10 -4 -15 4 -5 1 -9 -4 -9 -15 0 -14 17 5 44 10 16 12 26 5 31 -6 3 -11
-1 -11 -9 0 -9 -7 -16 -15 -16 -11 0 -14 7 -9 25 4 15 2 25 -5 25 -6 0 -10 -6
-9 -12 2 -8 -6 -13 -18 -12 -14 0 -20 -4 -17 -13 7 -18 -19 -26 -50 -14 -32
12 -34 8 -9 -18 42 -47 45 -53 33 -61 -9 -5 -8 -16 6 -43 21 -42 32 -45 58
-17 18 20 19 20 42 -26 13 -26 21 -49 17 -53 -4 -3 -9 0 -11 7 -7 19 -21 14
-25 -10 -3 -24 -28 -38 -28 -15 0 34 -28 25 -43 -14 -13 -32 -13 -39 -2 -39 8
0 18 8 24 18 9 16 11 16 27 0 15 -15 16 -21 6 -44 -10 -22 -15 -24 -27 -14 -9
7 -19 10 -23 6 -7 -7 19 -31 42 -39 6 -2 7 -8 3 -13 -4 -5 -12 -3 -16 4 -4 7
-15 10 -24 7 -8 -4 -25 -1 -37 5 -21 11 -21 12 -4 31 16 18 16 19 -8 19 -14 0
-29 -7 -32 -16 -8 -21 -23 -9 -31 25 -6 29 -8 30 -65 28 -32 -1 -56 1 -53 6
10 17 -29 18 -49 1 -15 -14 -22 -16 -25 -6 -6 16 -23 15 -23 -2 0 -8 7 -16 15
-20 13 -5 13 -9 3 -26 -16 -26 -28 -26 -28 0 0 29 -25 25 -26 -5 -1 -17 3 -25
15 -26 12 0 10 -3 -6 -11 -28 -13 -28 -20 -4 -42 18 -17 21 -17 46 0 15 10 24
23 21 31 -3 8 -1 11 4 8 17 -10 50 5 50 23 -1 16 -2 16 -14 0 -17 -23 -26 -23
-26 2 0 24 45 38 71 21 27 -16 38 -14 32 9 -6 23 15 28 35 8 15 -15 16 -58 2
-58 -5 0 -10 5 -10 11 0 6 -7 4 -15 -5 -14 -14 -13 -19 15 -47 28 -30 38 -49
24 -49 -3 0 -13 7 -21 16 -13 12 -17 13 -24 2 -6 -10 -11 -9 -22 6 -10 14 -16
16 -22 7 -4 -7 -2 -18 4 -24 15 -15 14 -27 -3 -27 -8 0 -18 9 -21 20 -4 13
-14 20 -28 19 -18 -1 -19 -2 -4 -6 14 -4 16 -8 6 -19 -15 -18 -29 -18 -29 1 0
13 -4 14 -21 4 -13 -7 -19 -7 -15 -1 3 6 2 13 -4 17 -6 3 -13 0 -16 -8 -3 -9
-17 -18 -31 -21 -13 -4 -35 -19 -48 -34 -23 -27 -24 -27 -39 -7 -22 29 -19 38
10 31 23 -6 24 -5 14 14 -13 24 -26 26 -38 4 -6 -11 -11 -13 -16 -5 -9 14 -36
15 -36 1 0 -5 9 -10 19 -10 17 0 31 -18 31 -41 0 -18 -32 -9 -37 11 -5 17 -7
18 -17 6 -6 -7 -24 -17 -41 -20 -22 -5 -26 -4 -15 4 13 8 13 10 1 10 -30 0
-80 -24 -84 -42 -6 -23 -35 -23 -54 0 -10 12 -16 14 -19 5 -3 -7 -13 -13 -23
-13 -9 0 -22 -5 -28 -11 -6 -6 -17 -8 -24 -3 -7 4 -28 9 -46 11 -28 3 -33 0
-33 -17 0 -18 -6 -20 -64 -20 -64 0 -126 -15 -138 -34 -4 -6 -9 -4 -14 7 -6
17 -34 24 -34 8 0 -5 -14 -8 -31 -7 -26 1 -35 -5 -51 -32 -20 -36 -17 -55 7
-45 10 3 15 -2 15 -16 0 -27 -2 -26 -50 5 -42 28 -50 37 -25 28 8 -4 15 -1 15
5 0 6 -9 11 -20 11 -15 0 -20 -7 -20 -25 0 -16 6 -25 15 -25 8 0 15 -9 15 -20
0 -11 3 -19 8 -18 4 2 18 -5 31 -14 26 -19 21 -39 -9 -31 -23 6 -26 19 -7 27
6 3 3 5 -8 5 -37 -2 -45 1 -45 15 0 8 -5 18 -11 22 -8 5 -10 -1 -7 -20 6 -28
1 -31 -21 -17 -8 5 -11 16 -8 25 8 21 -12 21 -28 0 -11 -16 -12 -16 -18 0 -4
10 3 25 20 41 33 30 28 36 -21 28 -39 -6 -58 -29 -36 -43 7 -4 9 -16 5 -29 -3
-11 -2 -21 3 -21 14 0 3 -41 -16 -62 -14 -16 -13 -18 2 -18 14 0 14 -4 -6 -30
-20 -28 -23 -29 -29 -12 -11 29 -67 17 -82 -17 -10 -24 -61 -81 -71 -81 -3 0
-6 10 -8 23 -2 14 -11 23 -25 25 -13 2 -20 8 -17 17 7 17 -15 30 -28 17 -8 -8
-6 -18 6 -36 9 -15 12 -26 7 -26 -5 0 -11 6 -14 13 -2 6 -8 9 -12 4 -5 -4 -2
-19 5 -33 14 -25 14 -25 30 -5 16 21 49 14 36 -8 -4 -6 -11 -9 -16 -6 -5 3
-11 -4 -15 -15 -5 -14 -15 -20 -38 -20 l-31 0 22 -16 c18 -12 26 -13 37 -4 9
8 15 8 15 2 0 -24 -13 -42 -32 -42 -10 0 -17 4 -14 9 3 4 -6 6 -19 3 -14 -2
-22 -8 -20 -12 3 -5 1 -11 -4 -14 -5 -4 -14 6 -19 21 l-10 28 -7 -29 c-5 -18
-4 -31 4 -36 7 -4 11 -16 9 -26 -2 -12 3 -19 12 -19 8 0 20 -13 25 -30 7 -20
18 -31 33 -33 12 -2 20 -8 17 -13 -3 -5 1 -6 10 -3 10 4 13 13 10 24 -8 26 14
36 30 14 7 -11 11 -22 9 -26 -6 -9 33 -21 45 -13 5 3 12 1 16 -5 4 -6 11 -5
19 3 18 15 10 28 -11 20 -12 -5 -15 -2 -11 9 4 9 2 20 -4 26 -6 6 -6 12 2 17
7 4 16 1 21 -6 4 -8 14 -14 21 -14 7 0 13 -7 14 -15 1 -42 42 -68 59 -39 4 6
13 8 20 5 8 -3 16 0 18 7 3 9 9 9 26 0 25 -15 34 -16 26 -4 -10 17 13 22 28 6
9 -8 28 -15 44 -15 22 0 25 2 13 10 -8 5 -10 10 -5 10 15 -1 45 -26 45 -39 0
-16 7 -14 40 11 24 17 33 19 42 10 10 -10 10 -17 0 -32 -16 -27 -9 -25 24 5
15 14 39 25 53 25 17 0 22 3 14 8 -10 6 -10 12 2 28 14 18 16 18 26 1 5 -9 14
-15 20 -12 5 4 9 1 9 -5 0 -7 15 -10 39 -9 21 2 46 -3 54 -9 8 -7 31 -16 51
-19 22 -3 41 -15 51 -29 13 -20 13 -24 2 -24 -18 0 -11 -44 9 -61 8 -6 14 -8
14 -4 0 4 7 2 15 -5 13 -10 15 -9 15 9 0 18 5 21 30 19 17 -1 30 -6 30 -10 0
-4 9 -8 20 -8 11 0 20 5 20 10 0 6 -6 10 -13 10 -8 0 -22 8 -31 19 -16 17 -16
19 0 25 10 4 25 -1 37 -11 15 -13 21 -15 24 -5 6 17 23 15 23 -3 0 -17 25 -20
35 -5 3 6 15 10 26 10 10 0 19 -4 19 -10 0 -5 -6 -10 -12 -10 -10 0 -9 -3 1
-9 16 -10 25 -78 13 -95 -5 -6 -6 -22 -2 -36 6 -21 8 -23 15 -7 10 23 35 22
28 -1 -2 -10 4 -26 15 -36 20 -17 20 -17 19 16 -2 30 1 33 28 36 28 4 29 3 14
-15 -21 -24 -43 -82 -35 -90 3 -3 6 1 6 10 0 20 36 23 54 4 16 -16 15 -77 -1
-77 -6 0 -15 -5 -18 -10 -4 -7 10 -9 40 -6 42 3 47 1 56 -21 12 -32 12 -33 -5
-33 -8 0 -16 6 -19 13 -5 14 -29 15 -59 2 -20 -8 -49 0 -47 12 3 20 -2 27 -11
13 -8 -12 -11 -12 -28 3 -10 9 -26 17 -35 17 -9 0 -16 4 -14 8 5 17 -39 91
-58 98 -37 12 -100 8 -134 -9 -41 -21 -60 -21 -67 -3 -3 8 -15 14 -27 15 -89
4 -146 9 -156 15 -6 4 -20 4 -32 1 -13 -4 -27 -1 -38 9 -13 12 -99 45 -118 46
-2 0 -3 -6 -3 -14 0 -22 -14 -26 -41 -11 -13 7 -48 25 -76 40 -29 15 -53 31
-53 36 0 15 -37 10 -43 -6 -5 -12 -12 -12 -39 -3 -18 6 -43 20 -56 32 -13 11
-29 21 -35 21 -18 1 -51 17 -58 28 -4 5 -12 8 -19 5 -9 -3 -8 -8 4 -20 9 -9
16 -22 16 -28 0 -7 8 -10 18 -8 10 3 27 -1 37 -8 18 -13 18 -14 -3 -14 -13 0
-25 -7 -28 -15 -4 -8 -14 -15 -23 -15 -13 0 -13 2 -2 9 7 5 10 14 6 20 -5 9
-13 8 -31 -3 -26 -18 -104 -22 -104 -5 0 6 9 8 20 4 27 -9 74 27 57 44 -8 8
-8 14 1 23 17 17 15 38 -4 38 -9 0 -22 7 -28 15 -9 13 -14 13 -28 3 -25 -19
-27 -51 -4 -56 14 -3 17 0 13 12 -3 8 -2 18 3 21 6 4 10 -3 10 -14 0 -11 5
-23 10 -26 21 -13 9 -25 -22 -21 -18 3 -36 5 -40 5 -5 1 -8 8 -8 17 0 11 -5
14 -16 10 -9 -3 -18 -6 -20 -6 -2 0 -4 -7 -4 -15 0 -21 20 -19 21 3 0 9 5 4
10 -12 11 -38 7 -41 -28 -24 -30 14 -45 65 -21 72 48 15 50 16 39 29 -8 11 -4
13 19 9 18 -2 30 0 30 7 0 17 -38 32 -86 34 -30 1 -43 6 -40 14 3 7 1 15 -4
18 -6 4 -10 -3 -10 -14 0 -11 -4 -23 -10 -26 -18 -11 -11 -27 10 -22 16 4 20
0 20 -19 0 -13 -9 -32 -20 -41 -11 -10 -20 -25 -20 -34 0 -21 -26 -43 -40 -34
-5 3 -10 1 -10 -4 0 -6 5 -11 10 -11 6 0 10 -9 10 -20 0 -15 -7 -20 -26 -20
-23 0 -25 -2 -14 -15 9 -11 10 -19 3 -26 -7 -7 -14 -5 -23 6 -21 25 -30 17
-30 -25 0 -22 5 -40 10 -40 6 0 10 -8 10 -19 0 -11 9 -21 21 -24 12 -3 19 -9
16 -14 -3 -4 1 -14 9 -21 12 -11 14 -9 9 18 -5 26 -2 32 20 40 14 5 25 14 25
20 0 5 5 10 10 10 17 0 11 -38 -7 -49 -14 -8 -15 -12 -4 -25 7 -9 13 -38 13
-66 0 -27 4 -50 9 -50 5 0 9 5 9 10 0 6 5 10 10 10 15 0 12 -47 -2 -53 -7 -3
-4 -6 7 -6 18 -1 17 -3 -5 -14 -19 -9 -26 -23 -30 -52 -4 -36 -8 -40 -32 -40
-27 0 -67 -29 -56 -40 3 -3 26 0 51 7 40 10 48 10 65 -5 10 -9 24 -17 30 -17
7 0 12 -9 12 -20 0 -11 -7 -20 -15 -20 -8 0 -15 -7 -15 -15 0 -8 8 -15 18 -15
13 0 14 -2 3 -9 -11 -7 -10 -11 5 -19 18 -10 16 -23 -12 -70 -1 -2 -16 4 -33
13 -36 18 -59 12 -40 -11 7 -8 18 -13 25 -10 7 3 18 -2 26 -11 10 -13 10 -17
1 -20 -18 -6 -16 -23 3 -23 9 0 14 -6 12 -12 -7 -19 -85 -20 -92 -1 -9 22 2
33 35 33 16 0 29 4 29 9 0 5 -19 9 -42 9 -24 1 -44 6 -46 12 -3 7 -12 5 -25
-7 -20 -17 -20 -17 -14 0 4 10 7 21 7 23 0 2 9 4 20 4 11 0 20 6 20 14 0 8 3
21 6 30 5 13 -1 16 -31 16 -32 0 -36 2 -30 20 5 14 2 20 -9 20 -9 0 -16 -7
-16 -15 0 -8 -6 -15 -14 -15 -8 0 -16 -7 -20 -15 -3 -8 -12 -15 -21 -15 -8 0
-15 -4 -15 -10 0 -18 29 -11 40 10 6 11 20 20 30 20 17 0 20 -7 20 -39 0 -44
-15 -63 -25 -31 -6 19 -35 29 -35 12 0 -12 41 -48 63 -55 18 -7 24 -47 6 -47
-6 0 -31 18 -56 39 -24 22 -54 41 -66 43 -12 2 -22 8 -22 13 -1 13 -34 66 -58
89 -15 15 -16 20 -6 27 7 4 17 5 23 2 5 -3 6 -1 2 5 -4 6 -21 8 -40 5 -18 -3
-36 -1 -39 4 -9 15 -78 2 -85 -16 -9 -26 -53 -63 -68 -57 -8 3 -13 9 -12 13 4
16 -14 94 -28 122 -15 31 -45 41 -119 41 -25 0 -48 6 -55 15 -12 15 -55 15
-78 1 -7 -4 -24 -1 -37 8 -13 9 -30 16 -37 16 -7 0 -19 9 -26 20 -7 12 -23 25
-35 31 -12 5 -37 21 -56 34 -37 27 -117 36 -108 13 2 -7 15 -12 28 -12 22 1
38 -11 39 -27 0 -3 -11 -4 -25 -1 -21 3 -25 0 -25 -18 0 -21 -1 -21 -23 -7
-22 14 -24 13 -36 -5 -7 -11 -9 -23 -5 -26 4 -4 9 -1 12 7 3 10 10 7 26 -11
11 -13 29 -27 38 -31 18 -6 15 -37 -3 -37 -5 0 -9 -9 -9 -21 0 -16 4 -19 23
-14 17 5 19 4 6 -4 -8 -6 -26 -7 -38 -4 -15 4 -19 8 -10 13 8 6 5 11 -11 20
-28 15 -50 -1 -31 -23 6 -8 9 -21 5 -30 -3 -8 0 -18 5 -22 6 -3 9 -11 5 -16
-3 -5 -10 -7 -15 -3 -5 3 -7 10 -4 15 8 12 -38 7 -47 -6 -13 -18 -8 -27 11
-22 10 2 25 1 32 -4 11 -7 10 -9 -3 -9 -10 0 -18 -4 -18 -9 0 -18 21 -23 38
-9 15 12 16 11 3 -4 -7 -10 -11 -25 -7 -33 3 -9 0 -15 -9 -15 -8 0 -15 -4 -15
-10 0 -5 4 -10 9 -10 5 0 12 -7 15 -16 5 -13 1 -14 -25 -9 -28 6 -30 5 -24
-14 9 -29 -1 -26 -30 6 -28 32 -33 17 -10 -27 15 -28 14 -30 -5 -30 -13 0 -20
7 -20 18 0 10 -5 23 -12 30 -8 8 -8 15 1 25 9 12 6 16 -20 21 -18 3 -28 10
-24 17 8 12 76 3 86 -12 3 -5 12 3 20 17 13 25 12 28 -9 42 -12 8 -22 25 -22
38 0 15 -6 24 -15 24 -24 0 -17 19 10 26 14 3 25 12 25 20 0 16 16 19 25 4 9
-14 25 -12 25 3 -1 6 -14 23 -30 37 -17 13 -30 28 -30 33 0 5 7 4 15 -3 11 -9
18 -9 35 3 21 14 18 29 -5 21 -21 -8 -29 16 -9 30 12 10 14 15 5 20 -7 5 -18
1 -25 -10 -13 -16 -14 -16 -24 2 -6 10 -12 15 -12 10 0 -5 -7 -3 -15 4 -13 11
-18 10 -30 -6 -8 -10 -15 -24 -15 -30 0 -27 -69 -24 -91 3 -17 19 5 43 23 25
32 -32 80 8 58 48 -12 22 -31 25 -60 10 -10 -5 -26 -7 -35 -4 -12 5 -13 9 -3
21 9 11 23 13 50 9 40 -7 51 7 26 33 -11 11 -8 12 12 6 14 -3 35 -11 48 -17
17 -9 29 -8 55 5 l32 16 -45 2 c-25 2 -63 4 -85 5 -22 1 -48 5 -58 9 -14 6
-18 4 -15 -10 2 -13 -5 -18 -35 -20 -21 -1 -40 2 -43 6 -5 9 -44 -26 -44 -40
0 -5 7 -11 15 -15 11 -4 15 2 15 20 l0 26 20 -23 19 -24 -24 -9 c-25 -10 -40
-42 -24 -52 5 -3 10 -22 10 -42 1 -20 3 -29 6 -19 3 10 14 17 29 17 27 0 32
-15 8 -24 -12 -5 -14 -13 -10 -32 6 -24 5 -26 -18 -22 -18 4 -26 1 -26 -8 0
-8 -6 -14 -12 -14 -7 0 -5 -5 5 -11 9 -5 22 -7 27 -4 6 3 13 -1 16 -9 9 -23
24 -20 24 4 0 20 1 20 31 -2 23 -17 27 -24 15 -26 -9 -2 -16 -12 -16 -22 0
-10 -5 -22 -10 -25 -8 -5 -7 -11 1 -21 20 -24 3 -44 -38 -45 -31 -1 -34 -2
-14 -8 34 -9 39 -31 7 -31 -14 0 -26 6 -26 13 0 7 -7 4 -15 -7 -8 -11 -16 -18
-17 -15 -2 2 -8 13 -14 24 -6 11 -21 21 -33 23 -20 3 -21 2 -9 -18 9 -13 10
-23 3 -28 -11 -7 -35 -54 -46 -87 -5 -16 -8 -12 -18 21 -6 23 -27 59 -46 79
-19 21 -37 51 -40 67 -4 16 -14 32 -23 34 -10 3 -32 13 -50 22 -27 13 -37 14
-53 3 -11 -6 -30 -9 -41 -5 -14 4 -18 2 -14 -5 4 -6 2 -11 -4 -11 -7 0 -9 8
-5 20 4 12 2 20 -5 20 -6 0 -17 15 -25 33 -11 26 -15 29 -20 15 -4 -9 -3 -23
1 -30 4 -7 -2 -5 -13 5 -28 24 -66 21 -90 -7 -12 -13 -29 -29 -40 -34 -16 -10
-16 -14 -5 -32 15 -25 8 -40 -10 -22 -7 7 -23 12 -37 12 -19 0 -22 3 -13 12
16 16 15 28 -3 28 -9 0 -18 6 -21 14 -6 17 -34 10 -34 -8 0 -18 -68 -68 -76
-55 -3 6 -1 15 6 19 16 10 4 30 -18 29 -10 0 -12 -3 -5 -5 7 -3 9 -12 6 -20
-4 -11 -9 -12 -19 -4 -9 8 -19 8 -35 -1 -17 -9 -24 -9 -27 0 -2 6 -10 11 -17
11 -8 0 -19 8 -24 18 -10 16 -10 16 -11 0 0 -10 5 -18 10 -18 6 0 10 -7 10
-15 0 -8 -4 -15 -10 -15 -5 0 -10 -4 -10 -9 0 -5 21 -6 48 -3 l47 5 -26 -29
c-14 -16 -36 -46 -48 -66 -14 -24 -30 -38 -42 -38 -13 0 -18 4 -13 13 4 6 -2
4 -14 -6 -11 -11 -24 -17 -29 -14 -5 3 -33 -3 -63 -14 -65 -23 -80 -24 -80 -5
0 8 -8 17 -17 20 -10 3 -35 22 -56 42 -31 30 -40 34 -53 24 -8 -7 -18 -10 -22
-6 -4 4 5 17 21 28 15 11 27 28 27 39 0 21 28 26 58 10 12 -6 23 -3 36 10 19
19 19 19 -5 19 -13 0 -31 5 -39 10 -13 8 -12 10 3 10 10 0 16 4 12 9 -3 6 -28
7 -55 4 -34 -4 -50 -2 -50 6 0 23 -28 10 -34 -16 -8 -28 8 -47 33 -38 24 9 30
-16 10 -36 -22 -22 -36 -24 -41 -7 -2 6 -10 8 -17 4 -7 -5 -10 -15 -7 -23 5
-12 1 -14 -14 -10 -13 3 -23 0 -27 -9 -10 -26 -20 -15 -57 66 -21 44 -42 83
-48 86 -5 3 -7 23 -3 44 5 32 3 40 -14 49 -11 6 -23 20 -26 31 -6 20 -45 29
-45 11 0 -5 -9 -13 -20 -16 -24 -7 -65 -92 -83 -169 -6 -27 -18 -50 -26 -53
-29 -9 -121 -57 -121 -63 0 -12 -129 -5 -142 8 -6 6 -22 12 -33 12 -24 0 -65
49 -65 78 0 26 -22 53 -45 54 -43 3 -166 -54 -205 -95 l-39 -40 -70 7 c-68 6
-116 -4 -132 -28 -4 -5 -10 -37 -14 -71 -6 -59 -9 -64 -50 -95 -59 -45 -87
-78 -95 -114 -3 -19 -13 -32 -25 -35 -10 -2 -27 -14 -38 -27 -10 -13 -29 -24
-42 -24 -13 0 -25 -6 -28 -12 -3 -10 -9 -10 -25 -1 -24 14 -32 8 -32 -24 0
-52 -82 -123 -142 -123 -17 0 -20 5 -14 30 3 17 1 30 -4 30 -6 0 -10 -9 -10
-20 0 -13 -12 -26 -32 -36 -18 -9 -48 -35 -67 -58 -40 -49 -126 -116 -150
-116 -10 0 -27 -13 -38 -29 -16 -21 -28 -27 -45 -24 -25 5 -32 -1 -116 -95
-111 -123 -108 -121 -153 -120 -23 0 -44 -4 -48 -9 -14 -20 -60 -41 -78 -37
-22 6 -58 -28 -50 -48 2 -7 33 -19 68 -27 138 -28 169 -44 169 -82 0 -31 -19
-31 -51 0 -17 17 -38 31 -47 31 -15 0 -15 -2 -2 -10 12 -7 12 -12 2 -22 -9 -9
-12 -9 -12 1 0 8 -9 2 -20 -12 -25 -32 -25 -70 -1 -111 19 -33 36 -136 22
-136 -19 0 5 -119 25 -127 15 -5 20 -43 6 -43 -4 0 -14 6 -21 13 -11 10 -12 6
-7 -23 4 -19 9 -55 12 -80 l5 -45 -24 45 c-13 25 -27 63 -31 85 -11 61 -47
165 -57 165 -5 0 -9 7 -9 14 0 16 -60 66 -78 66 -6 0 -15 8 -21 18 -7 13 -13
14 -21 6 -8 -8 -24 -9 -48 -3 -51 12 -142 11 -142 -1 0 -5 11 -10 25 -10 14 0
28 -7 31 -15 4 -8 14 -15 23 -16 36 -2 -58 -20 -102 -19 -42 1 -48 -2 -57 -25
-12 -31 -28 -32 -40 -2 -8 20 -9 20 -10 2 -1 -21 -27 -62 -34 -54 -8 8 16 89
25 89 5 0 9 11 9 25 0 14 6 28 14 31 15 6 96 123 96 139 0 13 50 75 61 75 5 0
29 9 52 20 24 11 63 24 88 29 29 6 35 9 18 10 -31 1 -55 26 -51 52 4 21 -35
31 -93 24 -22 -3 -104 -7 -182 -10 -138 -4 -234 -24 -312 -64 -11 -6 -30 -15
-41 -21 -11 -5 -31 -10 -46 -10 -14 0 -37 -9 -51 -20 -14 -11 -36 -20 -49 -20
-13 0 -24 -4 -24 -8 0 -5 -16 -16 -35 -25 -32 -15 -35 -15 -51 0 -13 13 -17
14 -24 3 -4 -7 -15 -10 -25 -6 -9 3 -22 3 -28 -1 -25 -16 -96 -30 -106 -20 -5
5 -19 2 -34 -8 -27 -17 -47 -13 -47 9 0 26 -34 44 -79 42 -44 -2 -50 -7 -114
-85 -10 -13 -24 -20 -31 -18 -9 4 -12 0 -9 -12 2 -10 -7 -30 -24 -48 -15 -16
-34 -47 -41 -69 -21 -61 -34 -84 -49 -84 -8 0 -20 -15 -28 -32 -7 -18 -25 -43
-39 -55 -14 -13 -26 -27 -26 -32 0 -12 -64 -31 -102 -31 -15 0 -31 -6 -35 -13
-11 -19 -103 -47 -146 -45 -42 1 -74 -18 -143 -86 -27 -28 -67 -65 -87 -82
-20 -17 -37 -38 -37 -45 0 -8 18 -22 41 -32 26 -11 39 -23 36 -31 -9 -23 5
-27 26 -9 15 14 21 15 24 5 4 -11 44 35 78 89 27 44 84 109 119 136 36 28 42
30 61 17 19 -13 25 -10 70 36 27 28 56 50 64 50 11 0 11 -3 -2 -18 -23 -25
-21 -35 3 -20 11 7 20 21 20 30 0 22 16 24 24 3 3 -8 -6 -25 -22 -39 -125
-115 -155 -141 -163 -144 -5 -2 -9 -11 -9 -19 0 -19 -249 -273 -268 -273 -7 0
-38 -27 -69 -60 -30 -33 -67 -63 -82 -66 -14 -4 -46 -25 -71 -49 -25 -23 -61
-52 -80 -65 -19 -13 -43 -33 -52 -44 -10 -12 -34 -40 -53 -62 -19 -23 -38 -56
-41 -73 -4 -17 -17 -39 -29 -49 -12 -10 -24 -24 -27 -32 -3 -9 -7 -10 -11 -4
-3 6 3 21 14 33 12 12 19 25 16 27 -7 8 -107 -87 -107 -102 0 -13 -71 -74 -86
-74 -17 0 -95 -81 -88 -91 6 -11 54 -7 87 6 11 5 16 14 12 26 -4 12 1 21 14
28 27 15 30 14 24 -9 -4 -14 0 -20 10 -20 22 0 31 -18 18 -34 -6 -7 -8 -16 -4
-20 4 -3 -4 -5 -17 -4 -18 2 -25 -3 -31 -22 -4 -14 -7 -21 -8 -17 -1 5 -15 -1
-32 -13 l-30 -22 28 -28 c19 -19 30 -25 35 -17 4 7 8 -2 8 -19 0 -19 -6 -34
-15 -38 -8 -3 -15 -17 -15 -31 0 -16 6 -25 15 -25 8 0 15 -4 15 -9 0 -21 -13
-41 -27 -41 -7 0 -25 -11 -38 -24 -14 -14 -27 -20 -30 -15 -4 5 -3 9 2 9 4 0
-3 7 -15 16 -22 15 -22 17 -5 30 17 13 17 15 -1 29 -25 19 -26 19 -55 -6 l-24
-20 22 -22 c11 -13 21 -29 21 -35 0 -7 9 -12 19 -12 23 0 51 -36 51 -65 -1
-19 -1 -19 -13 3 -15 25 -57 58 -57 43 0 -5 11 -23 25 -39 14 -17 25 -37 25
-46 0 -24 -26 -19 -44 9 -9 14 -21 23 -26 20 -5 -3 -11 -1 -14 4 -4 5 2 12 11
14 13 3 12 5 -6 6 -17 1 -22 5 -17 17 5 12 2 15 -10 10 -8 -3 -24 -6 -35 -6
-31 0 -22 -17 12 -24 28 -5 30 -8 18 -22 -10 -12 -25 -15 -56 -11 -40 4 -42 3
-32 -15 8 -14 17 -18 33 -14 24 6 66 -21 66 -42 0 -15 -47 -42 -74 -42 -14 0
-29 8 -35 17 -8 15 -13 15 -36 5 -18 -8 -44 -10 -73 -6 -35 5 -44 4 -40 -7 3
-8 14 -15 26 -17 12 -2 22 -10 22 -19 0 -12 -3 -13 -14 -4 -11 9 -20 9 -35 2
-28 -15 -44 -14 -38 3 7 19 -23 29 -58 20 -18 -4 -32 -1 -45 11 -11 10 -26 15
-34 12 -8 -3 -22 1 -33 8 -10 8 -28 15 -40 15 -13 0 -23 5 -23 10 0 20 -26 9
-45 -20 -22 -33 -35 -38 -35 -14 0 14 -3 14 -15 4 -8 -7 -15 -19 -15 -26 0 -8
7 -14 15 -14 8 0 15 -4 15 -10 0 -13 -3 -13 -34 1 -13 6 -23 17 -21 23 2 6 6
23 9 37 6 29 35 46 47 28 5 -8 12 -8 25 0 18 10 18 10 -3 11 -14 0 -23 6 -23
15 0 22 -42 19 -68 -5 -27 -25 -57 -25 -82 0 -11 11 -20 16 -20 10 0 -16 -28
-11 -39 7 -8 15 -12 16 -38 3 -22 -11 -24 -14 -10 -17 31 -8 18 -23 -19 -23
-29 0 -34 -3 -25 -13 16 -20 -8 -50 -29 -37 -9 6 -10 10 -3 10 6 0 11 13 11
30 -1 20 -6 30 -16 30 -8 0 -20 7 -26 15 -6 8 -26 18 -43 21 -29 6 -33 4 -33
-15 0 -14 -6 -21 -19 -21 -39 0 -36 28 4 43 6 3 6 8 2 13 -4 5 -12 2 -17 -6
-8 -13 -10 -12 -10 3 0 9 -7 17 -17 17 -9 0 -13 -3 -10 -7 4 -3 2 -12 -5 -20
-11 -13 -8 -24 23 -85 5 -10 9 -27 9 -37 0 -11 5 -23 10 -26 13 -8 13 -35 0
-35 -5 0 -10 7 -10 15 0 11 -11 15 -40 15 -22 0 -40 -4 -40 -10 0 -20 -27 -9
-39 16 -9 21 -14 24 -26 14 -8 -7 -15 -18 -15 -24 0 -23 25 -66 38 -66 22 0 8
-35 -15 -38 -13 -2 -23 -12 -26 -25 -3 -17 -5 -15 -6 8 -1 17 -6 37 -11 45 -7
11 -10 4 -10 -27 0 -28 -5 -43 -12 -43 -8 -1 -6 -6 5 -14 23 -18 22 -47 -3
-53 -13 -3 -20 -14 -20 -29 0 -26 -16 -41 -23 -22 -4 10 -6 10 -6 1 -2 -22
-17 -14 -30 14 -7 15 -21 33 -32 41 -11 7 -17 18 -13 23 3 6 -3 18 -14 27 -10
9 -17 23 -14 31 3 10 -2 12 -22 7 -35 -9 -33 6 4 27 29 18 36 39 24 72 -6 14
-9 14 -29 -5 -25 -24 -36 -16 -51 35 -8 28 -9 26 -12 -20 -2 -37 -8 -54 -22
-63 -12 -7 -20 -8 -20 -2 0 5 5 10 11 10 6 0 9 12 7 27 -2 23 -8 27 -33 28
-24 0 -31 5 -33 24 -2 13 -12 25 -22 28 -25 7 -33 30 -12 38 10 4 22 -1 30
-12 9 -13 16 -15 29 -7 28 18 27 34 -4 35 -15 1 -32 2 -38 4 -5 1 -18 3 -27 3
-25 3 -22 25 4 37 29 13 35 35 9 35 -12 0 -21 -4 -21 -9 0 -5 -16 -15 -35 -22
-40 -15 -44 -28 -15 -54 11 -10 19 -27 19 -39 -1 -57 18 -116 37 -116 11 0 14
-8 12 -27 -2 -14 2 -28 9 -30 9 -3 11 4 7 26 -6 28 -4 31 20 31 30 0 36 -29
11 -50 -19 -16 -19 -30 -1 -30 8 0 16 -10 18 -22 2 -13 9 -24 16 -24 23 -3 24
-4 12 -19 -10 -12 -10 -15 0 -15 10 0 10 -3 1 -14 -9 -11 -8 -21 7 -47 15 -28
26 -34 77 -45 33 -7 97 -13 142 -13 45 -1 102 -7 125 -15 24 -8 72 -17 108
-21 36 -4 72 -8 80 -10 200 -42 464 -55 1390 -70 254 -5 387 -11 437 -21 112
-22 1475 -21 1553 2 30 8 66 18 80 21 14 3 43 21 65 40 22 19 50 36 63 40 12
3 52 25 87 48 48 32 84 48 142 60 43 10 95 28 115 41 38 24 154 57 169 48 5
-2 16 0 26 6 10 5 72 21 138 35 66 14 158 34 205 45 110 27 242 42 254 30 6
-6 15 -10 21 -10 5 0 3 5 -5 11 -11 8 -4 9 27 7 25 -2 44 1 47 8 5 13 91 31
191 40 39 3 104 13 145 21 86 18 141 24 400 46 102 9 240 22 307 28 67 6 141
9 165 5 23 -3 151 -8 283 -10 250 -5 301 -11 485 -60 52 -14 119 -26 148 -26
29 0 68 -6 86 -14 25 -10 115 -15 362 -20 499 -9 2247 -11 2261 -3 6 4 98 7
205 7 106 0 272 7 368 15 96 8 182 14 190 13 8 -2 56 1 105 5 50 4 131 10 182
13 51 3 107 10 125 15 18 6 119 14 223 19 105 5 204 13 222 19 17 5 110 10
205 10 156 1 322 17 291 28 -7 3 -13 9 -13 14 0 12 37 12 45 -1 9 -15 259 -8
278 9 15 12 17 57 17 420 l0 408 -25 11 c-33 15 -32 15 -38 -7 -3 -14 -11 -17
-32 -14 -22 5 -26 9 -21 29 5 18 2 24 -10 24 -8 0 -14 6 -11 13 2 7 15 11 30
9 18 -2 27 1 27 11 0 10 -8 13 -25 9 -18 -3 -25 0 -25 11 0 9 5 19 10 22 17
10 11 25 -10 25 -17 0 -19 5 -14 25 5 20 2 25 -20 31 -25 6 -37 24 -16 24 12
0 73 -41 78 -52 2 -5 20 -8 39 -8 l36 0 -6 -54 c-4 -38 -2 -58 7 -65 7 -6 16
-8 19 -4 4 3 7 75 7 160 l0 153 -25 10 c-14 5 -25 14 -25 19 0 5 11 12 25 15
21 5 25 12 25 45 0 40 -18 59 -38 39 -12 -12 -32 -2 -32 17 0 7 -12 15 -27 17
-35 4 -43 28 -9 28 14 0 34 -9 45 -21 13 -14 21 -17 26 -9 4 6 13 9 21 6 11
-4 14 4 14 34 0 43 -18 60 -65 60 -14 0 -40 7 -57 16 -21 11 -47 15 -79 12
-37 -4 -51 -1 -63 13 -8 10 -22 16 -31 13 -17 -7 -21 11 -5 21 18 11 10 25
-15 25 -31 0 -33 -22 -4 -49 28 -26 10 -34 -44 -19 -38 10 -50 9 -83 -7 -33
-16 -41 -16 -63 -4 -22 13 -28 39 -6 30 56 -22 74 35 26 87 -15 18 -35 32 -44
32 -10 0 -17 8 -17 19 0 24 -14 35 -76 59 -35 13 -57 16 -68 10 -9 -5 -21 -6
-27 -3 -6 4 -13 -2 -16 -13 -4 -18 -35 -29 -108 -38 -11 -2 -37 -6 -57 -10
-27 -5 -38 -3 -38 5 0 8 -8 10 -21 6 -18 -6 -19 -5 -7 14 7 12 16 17 21 12 12
-12 37 -2 37 14 0 8 9 17 20 20 22 7 24 13 11 33 -7 11 -9 11 -14 -2 -3 -8
-20 -22 -36 -31 -26 -13 -31 -13 -31 -1 0 30 13 45 46 56 42 14 44 29 4 36
-22 5 -33 15 -41 38 -8 23 -23 37 -50 49 -22 9 -39 21 -39 27 0 15 38 50 54
50 8 0 18 9 21 20 3 11 11 20 16 20 5 0 9 6 9 14 0 21 31 28 50 11 9 -8 23
-15 32 -15 19 0 89 -60 83 -71 -3 -4 -21 -5 -39 -2 -50 8 -85 -21 -86 -68 0
-24 5 -39 16 -43 8 -3 12 -10 9 -16 -3 -5 -1 -10 5 -10 8 0 9 10 5 30 -4 19
-3 30 4 30 6 0 11 -4 11 -10 0 -5 7 -10 15 -10 9 0 27 -8 42 -17 14 -9 38 -16
54 -15 20 2 29 -3 34 -18 7 -21 14 -24 39 -14 32 12 -36 62 -136 101 -58 22
-61 31 -10 28 43 -3 92 -21 92 -33 0 -10 72 -52 89 -52 20 0 11 15 -16 27 -43
20 -99 76 -95 96 2 9 -1 17 -7 17 -6 0 -25 16 -42 35 -18 19 -36 35 -41 35
-15 0 -55 44 -61 68 -6 27 0 28 22 4 9 -11 29 -19 49 -19 28 0 32 4 32 26 0
15 -13 40 -30 59 -16 18 -35 42 -40 53 -6 10 -21 19 -33 19 -21 0 -20 -2 8
-25 34 -28 17 -33 -25 -8 -32 18 -46 71 -24 88 7 5 17 25 21 44 6 24 19 41 42
53 33 19 34 19 53 -1 10 -12 27 -21 36 -21 10 0 27 -7 38 -16 19 -15 19 -15
-1 -11 -11 3 -28 8 -37 12 -30 12 -20 -10 13 -29 29 -17 31 -17 44 1 11 14 16
16 26 5 11 -10 10 -12 -3 -12 -27 0 -32 -20 -9 -36 25 -18 18 -38 -9 -29 -20
6 -32 -5 -22 -21 12 -19 44 -25 60 -12 15 13 20 9 25 -19 1 -5 23 -18 49 -31
26 -12 48 -27 48 -32 0 -5 9 -11 19 -15 35 -11 104 -66 94 -76 -10 -10 -73 16
-73 30 0 7 -72 51 -84 51 -19 0 0 -24 37 -47 24 -14 49 -39 56 -55 7 -16 21
-32 30 -34 9 -3 48 -20 86 -39 79 -37 125 -50 125 -35 0 16 26 12 41 -6 7 -9
23 -20 36 -25 16 -6 23 -17 23 -34 0 -16 7 -28 18 -31 9 -2 48 -20 85 -40 l68
-35 -2 246 -2 245 -33 25 c-18 14 -38 25 -44 25 -7 0 -9 8 -5 20 4 14 2 20 -8
20 -8 0 -28 7 -43 15 -16 8 -36 15 -45 15 -8 0 -20 5 -26 11 -8 8 -13 8 -17 0
-11 -17 -47 6 -40 24 5 11 -1 15 -18 15 -17 0 -24 6 -24 20 0 18 5 20 30 14
27 -6 29 -5 18 9 -14 16 -6 97 9 97 5 0 9 7 9 15 0 8 -5 15 -11 15 -7 0 -9 10
-5 25 6 24 -7 35 -19 15 -3 -5 -13 -6 -22 -3 -12 5 -14 3 -8 -6 9 -15 -18 -9
-73 16 -32 15 -46 13 -48 -10 -4 -43 -34 -79 -34 -42 0 8 -4 15 -8 15 -5 0
-13 17 -18 37 -11 44 -34 57 -34 19 0 -19 -5 -26 -20 -26 -11 0 -21 6 -21 13
-1 6 -2 17 -4 22 -1 6 -3 15 -3 22 -1 6 -14 13 -29 15 l-28 3 32 19 c18 11 30
23 27 27 -7 12 8 39 18 32 7 -4 9 4 6 21 -4 21 -1 27 18 32 13 4 27 18 33 36
6 16 20 32 31 35 11 3 17 9 14 14 -7 12 5 49 16 49 11 0 70 59 70 69 0 5 14
22 30 39 17 18 30 34 30 37 0 3 18 29 40 58 22 29 48 62 57 75 10 13 24 30 31
37 15 16 16 50 2 76 -9 16 -14 17 -30 6 -11 -6 -20 -17 -20 -24 0 -7 -9 -13
-20 -13 -21 0 -27 15 -10 25 6 3 10 15 10 27 0 17 2 18 15 8 12 -10 18 -10 30
0 16 14 35 6 35 -16 0 -31 16 -12 17 20 1 26 -4 35 -19 39 -16 5 -18 9 -9 26
9 15 8 23 -3 33 -11 11 -11 16 1 35 9 13 13 29 10 36 -3 7 4 19 14 25 22 14
22 12 9 -22 -13 -34 11 -36 37 -3 10 13 24 22 31 19 16 -5 57 36 64 65 8 29
-15 49 -32 28 -18 -21 -50 -19 -50 4 0 14 6 17 25 13 14 -2 25 0 25 6 0 5 8
12 19 15 17 4 18 15 16 122 -2 75 -6 120 -14 124 -8 6 -8 16 0 40 13 36 7 50
-14 33 -8 -7 -17 -8 -21 -4 -4 4 -5 -12 -1 -36 5 -33 3 -44 -9 -48 -9 -3 -16
-14 -16 -23 0 -14 2 -14 11 -1 8 12 10 12 7 -5 -2 -11 -12 -21 -24 -23 -20 -3
-21 -1 -9 45 11 43 10 51 -6 75 -17 23 -18 28 -4 41 8 9 15 23 15 32 0 13 6
16 21 12 12 -3 22 0 26 9 3 8 11 14 17 14 7 0 14 16 16 38 2 27 5 872 3 1107
0 11 1 489 3 1063 l2 1042 -21 12 -21 11 24 10 c23 8 24 10 6 16 -16 6 -17 9
-5 13 12 5 15 21 14 64 -3 82 -3 84 -20 84 -9 0 -12 -6 -9 -15 4 -8 1 -15 -5
-15 -6 0 -11 7 -11 15 0 12 -22 14 -130 14 -71 -1 -130 -4 -130 -8 0 -10 -33
-10 -45 0 -6 4 -17 4 -24 0 -11 -7 -10 -14 5 -36 14 -21 15 -30 6 -33 -6 -2
-12 -14 -12 -27 0 -24 -37 -55 -66 -55 -10 0 -14 -5 -10 -15 3 -8 1 -15 -5
-15 -5 0 -12 7 -15 15 -4 8 -12 15 -20 15 -7 0 -17 6 -21 13 -4 8 -16 17 -26
20 -10 4 -16 11 -12 16 3 6 12 8 20 4 8 -3 15 0 15 6 0 6 5 11 10 11 6 0 10
-12 10 -26 0 -15 4 -23 10 -19 6 4 8 15 5 25 -5 15 -2 17 15 13 18 -5 20 -2
15 20 -6 22 -4 25 14 20 30 -8 26 15 -4 29 -14 6 -25 16 -25 22 0 25 -21 -13
-23 -42 -1 -18 -7 -32 -13 -32 -5 0 -9 15 -8 32 3 40 -4 52 -21 38 -9 -7 -21
-7 -39 0 -36 13 -36 14 -26 -20z m-4090 -4247 c25 -9 54 -25 66 -35 11 -10 25
-18 31 -18 19 0 36 -29 25 -43 -8 -9 3 -27 41 -70 29 -31 57 -57 64 -57 6 0
31 -22 54 -50 23 -27 46 -50 52 -50 5 0 25 -13 44 -30 25 -23 43 -30 74 -30
42 0 79 -14 79 -30 0 -4 -16 -4 -36 2 -20 5 -43 7 -52 3 -30 -11 -119 44 -178
111 -31 35 -66 67 -78 70 -25 7 -90 100 -82 119 6 16 -88 81 -131 90 -19 4
-33 13 -33 21 0 18 5 18 60 -3z m2617 -913 c10 -13 14 -13 30 3 17 16 16 17
-5 17 -13 0 -22 6 -22 15 0 8 7 15 15 15 17 0 55 -35 55 -50 0 -5 6 -10 14
-10 17 0 86 -37 101 -54 17 -19 64 -46 79 -46 8 0 24 -16 36 -35 12 -19 28
-35 35 -35 8 0 27 -12 42 -26 15 -14 37 -30 48 -34 25 -10 62 -70 43 -70 -7 0
-24 17 -37 37 -16 25 -25 32 -31 23 -5 -9 -9 -9 -14 -1 -13 20 -23 11 -20 -16
2 -18 1 -20 -3 -8 -6 23 -23 37 -39 31 -6 -3 -17 7 -23 20 -12 26 -31 24 -31
-3 0 -9 -8 -22 -17 -29 -17 -11 -14 -16 25 -52 26 -24 41 -33 40 -23 -2 9 4
16 12 16 9 0 14 -8 12 -20 -1 -12 6 -24 17 -30 10 -6 46 -32 78 -60 33 -27 69
-56 79 -63 17 -12 17 -12 -7 -8 -36 8 -44 -5 -17 -25 12 -10 20 -20 17 -24 -4
-3 -13 0 -20 8 -8 7 -27 17 -43 21 -15 4 -30 15 -33 25 -2 9 -30 29 -62 44
-31 14 -65 35 -76 47 -10 11 -23 20 -30 20 -15 0 -50 38 -42 46 8 9 -48 54
-67 54 -8 0 -23 11 -32 26 -9 14 -23 23 -29 20 -14 -5 -55 37 -55 55 0 6 -6 9
-13 6 -14 -5 -43 56 -33 71 6 11 -39 99 -66 129 l-20 21 24 4 c22 4 57 -17 85
-52z m633 -599 c25 -23 48 -41 52 -41 4 0 24 -24 43 -52 19 -29 51 -66 70 -81
19 -15 35 -34 35 -41 0 -8 7 -19 15 -26 16 -13 20 -30 7 -30 -5 0 -18 9 -30
20 -21 20 -42 26 -42 13 0 -12 33 -43 45 -43 7 0 18 -6 25 -14 12 -15 44 -10
34 5 -3 5 2 9 10 9 9 0 16 -6 16 -13 0 -7 9 -18 20 -25 11 -7 20 -17 20 -23 0
-5 -5 -7 -11 -3 -7 4 -10 -1 -7 -12 1 -9 23 -27 47 -40 25 -12 56 -35 70 -51
14 -15 38 -36 54 -46 15 -10 27 -21 27 -25 0 -12 -64 -1 -72 11 -4 6 -10 -2
-14 -18 -6 -23 -3 -31 11 -39 11 -6 29 -21 41 -32 13 -12 25 -20 27 -18 2 3
10 -2 17 -11 9 -11 9 -15 1 -15 -7 0 -9 -5 -5 -11 3 -6 1 -15 -6 -19 -13 -8
-50 22 -50 40 0 6 -10 10 -22 10 -35 0 -43 9 -80 86 -18 39 -45 84 -59 100
-36 42 -119 104 -140 104 -16 0 -85 33 -99 47 -3 3 11 2 30 -2 l35 -7 -19 21
c-11 12 -36 26 -58 31 -33 9 -38 15 -38 40 0 19 -6 31 -19 35 -10 3 -26 14
-36 25 -17 19 -17 20 3 20 11 0 41 -16 67 -35 25 -20 50 -33 54 -31 5 3 16 -3
26 -14 10 -11 25 -20 34 -20 13 0 14 2 2 9 -8 5 -11 16 -8 24 3 9 -12 31 -39
58 -24 24 -44 47 -44 52 0 10 -49 57 -97 94 -18 14 -30 29 -27 34 7 12 30 -1
84 -50z m1051 -348 c14 9 26 7 53 -6 20 -9 42 -14 51 -11 10 4 15 0 15 -10 0
-9 7 -16 15 -16 8 0 15 -4 15 -10 0 -5 9 -10 19 -10 11 0 23 -4 26 -10 3 -5
-1 -10 -10 -10 -12 0 -15 -6 -10 -20 9 -29 -12 -26 -69 11 -27 16 -51 28 -53
25 -12 -12 9 -36 46 -55 22 -12 43 -26 46 -32 11 -17 -4 -24 -25 -11 -11 7
-36 12 -55 12 -28 0 -44 9 -82 45 -53 52 -52 73 2 26 45 -39 63 -40 36 -2 -26
36 -27 51 -3 51 14 0 15 2 2 10 -20 13 -33 13 -25 0 10 -16 -12 -12 -29 6 -9
8 -20 12 -26 9 -5 -3 -10 -2 -10 3 0 18 13 21 33 7 15 -10 24 -11 38 -2z
m-274 -692 c97 -3 211 -53 274 -122 14 -16 30 -29 36 -29 6 0 16 -6 22 -14 9
-11 9 -16 0 -22 -8 -5 -26 7 -48 33 -30 34 -41 41 -68 38 -22 -2 -30 1 -26 10
5 15 -32 39 -47 30 -5 -3 5 -20 21 -37 16 -18 29 -39 29 -48 -1 -10 -11 -3
-28 17 -19 22 -39 34 -64 37 -31 4 -105 38 -118 55 -3 3 -14 11 -25 17 -11 6
-21 21 -23 33 -3 19 -1 20 21 12 14 -6 34 -10 44 -10z m-9936 -1128 c-6 -10
-22 -29 -36 -42 -14 -13 -25 -26 -25 -30 0 -4 -16 -13 -35 -20 -19 -7 -35 -17
-35 -23 0 -5 -7 -7 -16 -4 -10 4 -25 -1 -35 -10 -23 -20 -53 -14 -57 12 -4 25
66 97 87 89 8 -3 25 4 38 16 29 28 39 19 25 -20 -8 -22 -8 -31 -1 -31 6 0 13
9 16 20 3 11 11 20 17 20 6 0 18 9 26 20 18 26 45 28 31 3z"/>
<path d="M650 8625 c0 -3 11 -33 25 -66 l24 -60 -22 7 c-28 8 -33 14 -42 44
-5 19 -4 21 4 10 9 -13 11 -13 11 2 0 9 -8 21 -17 26 -24 14 -86 -63 -72 -89
13 -25 12 -28 -12 -22 -18 5 -20 3 -14 -15 4 -13 0 -30 -9 -44 -9 -12 -16 -30
-16 -40 0 -10 -4 -18 -10 -18 -5 0 -7 7 -4 15 4 9 0 15 -10 15 -9 0 -16 -8
-16 -17 0 -10 -3 -28 -6 -40 -6 -22 -4 -23 54 -23 41 0 63 5 72 15 8 10 17 12
24 6 6 -5 30 -6 55 -1 25 4 51 6 58 3 7 -3 17 5 22 20 7 18 19 26 47 30 21 4
43 2 48 -3 6 -6 17 -10 25 -10 9 0 -5 14 -31 31 -49 32 -60 49 -33 49 8 0 15
-5 15 -10 0 -6 6 -10 13 -8 6 1 22 -3 35 -10 14 -8 22 -9 22 -2 0 13 27 13 35
1 3 -6 -4 -19 -16 -29 -23 -23 -11 -37 22 -27 18 6 20 13 16 42 -10 59 12 69
98 46 18 -5 18 -4 3 11 -9 9 -26 16 -38 16 -18 0 -21 4 -17 20 5 19 2 20 -31
14 -47 -8 -52 -12 -52 -31 0 -9 -6 -13 -15 -9 -9 3 -15 0 -15 -9 0 -20 -56
-20 -63 -1 -3 8 -3 24 0 37 4 14 2 20 -5 16 -5 -4 -21 -3 -34 2 -17 7 -18 10
-5 10 26 1 21 18 -8 25 -17 4 -24 12 -22 26 1 10 -2 18 -8 17 -5 -1 -9 -17 -7
-34 2 -26 -1 -33 -16 -33 -14 0 -18 8 -19 35 -1 35 -17 65 -34 65 -5 0 -9 -2
-9 -5z"/>
<path d="M11014 7752 c-10 -11 -31 -22 -46 -24 -15 -2 -30 -7 -34 -11 -4 -4
-17 -7 -28 -8 -12 0 -15 -3 -8 -6 27 -11 12 -33 -23 -33 -19 0 -35 -4 -35 -10
0 -5 -8 -10 -19 -10 -10 0 -24 -7 -31 -15 -7 -8 -19 -15 -26 -15 -8 0 -14 -4
-14 -10 0 -5 5 -10 11 -10 5 0 7 -5 4 -10 -4 -6 -15 -8 -26 -5 -14 5 -19 2
-19 -13 0 -11 -7 -26 -16 -33 -14 -11 -18 -10 -30 6 -13 17 -14 16 -14 -18 0
-42 -2 -43 -35 -21 -24 16 -51 11 -40 -7 4 -5 -3 -9 -14 -9 -12 0 -21 -6 -21
-14 0 -16 -27 -29 -41 -20 -13 8 -11 -4 6 -30 15 -22 14 -24 -15 -36 -16 -7
-30 -17 -30 -22 0 -5 5 -6 12 -2 6 4 8 3 4 -4 -7 -12 -63 -42 -88 -47 -33 -7
-78 -48 -78 -72 0 -16 -4 -21 -15 -17 -19 8 -19 -1 0 -30 14 -21 14 -24 0 -36
-10 -8 -15 -9 -15 -1 0 6 -4 11 -9 11 -5 0 -7 -18 -4 -40 4 -26 2 -40 -6 -40
-6 0 -11 -5 -11 -10 0 -16 -121 -129 -144 -135 -36 -10 -115 -50 -116 -58 0
-4 12 -4 27 -1 23 6 25 4 21 -14 -4 -15 0 -21 16 -24 33 -7 46 1 46 27 0 28
33 56 95 80 40 15 49 15 56 4 15 -25 10 -29 -38 -29 -46 0 -46 0 -28 -20 10
-12 25 -18 32 -16 9 4 13 -3 13 -19 0 -14 -4 -25 -10 -25 -21 0 -9 -18 16 -24
22 -6 24 -9 12 -23 -12 -14 -9 -15 22 -10 19 4 52 10 74 13 26 5 40 13 44 26
2 10 15 21 28 24 13 3 24 10 24 15 0 13 -14 11 -29 -3 -11 -10 -14 -10 -18 0
-6 14 -53 17 -53 2 0 -5 12 -10 27 -10 37 0 26 -6 -24 -14 -38 -6 -43 -4 -43
14 0 11 -11 25 -26 33 l-27 14 44 6 c24 3 63 3 85 0 26 -3 44 -1 48 6 10 16
36 14 36 -3 0 -9 7 -12 20 -9 11 3 20 9 20 13 0 4 9 10 21 13 11 3 23 15 26
26 5 21 37 29 47 13 11 -18 124 -5 162 18 l36 23 -11 -21 c-7 -12 -17 -22 -23
-22 -9 0 -9 -3 0 -12 10 -10 15 -10 22 2 5 8 10 12 10 8 0 -5 9 1 20 12 10 10
46 25 79 31 43 9 61 18 64 31 6 20 32 24 42 8 11 -17 34 8 28 29 -5 21 12 37
22 21 11 -18 36 -11 74 20 20 17 41 35 47 40 21 16 139 74 147 72 6 -2 142 54
188 78 9 5 33 12 53 15 27 6 36 12 36 27 0 17 2 18 15 8 13 -11 20 -10 41 0
22 12 25 20 22 59 -4 52 -23 65 -39 24 -12 -29 -13 -28 -24 21 -6 27 -7 27
-20 10 -8 -11 -11 -29 -8 -41 4 -17 1 -23 -11 -23 -9 0 -26 -6 -37 -12 -18
-11 -23 -10 -40 12 -11 14 -29 35 -40 48 -24 28 -24 32 4 32 21 1 21 1 2 12
-11 6 -25 18 -31 26 -12 16 -38 7 -28 -9 3 -5 7 -23 9 -39 3 -25 0 -30 -16
-30 -12 0 -23 -8 -26 -20 -7 -27 -19 -25 -35 7 -8 17 -25 30 -45 35 -18 5 -32
14 -30 21 1 6 -5 12 -13 12 -51 1 -55 75 -4 75 2 0 4 -11 4 -25 0 -21 5 -25
28 -25 16 0 37 9 47 20 15 17 16 20 3 20 -9 0 -18 7 -22 15 -3 8 -16 15 -30
15 -19 0 -28 8 -37 35 -10 27 -16 32 -26 23 -10 -8 -10 -14 -2 -24 7 -9 7 -18
0 -31 -10 -17 -10 -17 -11 0 0 25 -19 21 -32 -8 -6 -14 -17 -25 -25 -25 -20 0
-16 -12 12 -35 18 -14 22 -24 16 -34 -8 -12 -12 -10 -21 11 -11 23 -15 25 -56
17 -49 -9 -70 -5 -78 18 -6 14 -9 14 -30 -1 -22 -14 -25 -14 -30 1 -11 27 9
37 44 23 39 -16 51 -5 42 40 -12 54 -5 67 39 74 21 3 39 10 39 14 0 13 -49 52
-64 52 -8 0 -16 5 -18 12 -3 7 -11 4 -24 -10z"/>
<path d="M11877 7173 c-4 -3 -7 -16 -7 -29 0 -18 -4 -21 -22 -17 -21 4 -22 3
-5 -10 9 -8 17 -17 17 -21 0 -12 -38 -6 -43 7 -3 8 -13 3 -30 -15 -14 -16 -33
-28 -42 -28 -15 0 -64 -47 -65 -63 0 -18 -77 -87 -96 -87 -12 0 -37 -11 -56
-23 -19 -13 -46 -27 -61 -31 -36 -9 -34 -33 3 -41 31 -7 38 -23 18 -43 -9 -9
-9 -12 0 -12 7 0 12 -7 12 -15 0 -20 -13 -19 -40 5 -15 13 -18 20 -9 21 8 0 4
4 -8 9 -13 6 -23 18 -23 30 0 35 -53 18 -160 -53 -46 -31 -48 -44 -5 -27 31
12 38 9 30 -11 -8 -22 -78 -64 -83 -50 -2 6 -8 8 -13 5 -6 -3 0 -15 13 -25 19
-17 20 -22 8 -30 -13 -8 -13 -11 3 -23 21 -16 22 -36 3 -36 -8 0 -16 -5 -18
-12 -3 -9 -6 -9 -12 0 -4 7 -2 12 3 12 6 0 11 9 11 19 0 15 -9 20 -42 24 -24
3 -56 8 -73 12 -20 4 -26 3 -16 -3 9 -7 10 -12 2 -16 -6 -4 -11 -14 -11 -22 0
-20 -27 -47 -40 -39 -7 4 -7 12 0 25 14 26 13 30 -8 30 -22 0 -72 22 -72 33 0
15 -33 6 -74 -22 -51 -35 -63 -49 -71 -81 -6 -25 -5 -25 59 -26 63 -1 65 -1
68 25 3 27 15 29 65 10 20 -8 22 -12 13 -30 -9 -16 -8 -25 6 -40 16 -18 16
-19 -8 -19 -17 0 -27 7 -31 20 -6 24 -43 26 -71 5 -19 -15 -19 -15 1 -15 13 0
20 -6 19 -17 -1 -12 8 -17 34 -17 25 -1 36 -6 38 -18 2 -11 -3 -18 -11 -18
-20 0 -16 -44 5 -48 9 -2 22 6 28 17 7 15 21 21 43 21 18 0 38 5 45 12 9 9 18
9 37 0 14 -7 35 -12 47 -12 18 0 19 2 7 17 -12 15 -12 16 3 10 9 -3 31 1 49
10 30 15 33 15 46 -2 7 -11 13 -22 13 -26 0 -9 -81 -19 -153 -20 -39 0 -60 -5
-63 -14 -3 -7 -21 -16 -41 -20 -29 -5 -34 -10 -30 -26 4 -16 2 -19 -11 -13 -9
4 -26 7 -37 8 -11 1 -34 11 -52 24 -34 24 -48 28 -37 11 11 -19 -18 -29 -63
-23 -23 3 -49 1 -60 -5 -17 -10 -17 -10 0 -11 10 0 16 -4 12 -9 -6 -10 -62 4
-79 20 -18 17 -46 10 -46 -11 0 -11 -4 -20 -9 -20 -15 0 -91 -67 -84 -74 4 -3
16 -6 27 -6 12 0 32 -7 44 -16 21 -14 22 -14 22 5 0 12 5 21 11 21 5 0 7 4 4
10 -3 5 -3 26 1 47 6 32 8 34 15 16 10 -29 9 -103 -2 -103 -20 0 -7 -20 21
-35 29 -15 30 -15 31 7 1 13 1 38 0 56 -2 17 2 32 8 32 6 0 11 -4 11 -10 0 -5
8 -10 18 -10 10 0 32 -13 50 -30 21 -19 44 -30 63 -30 16 0 29 -4 29 -10 0 -5
10 -10 23 -10 21 -1 22 -1 3 -15 -19 -14 -19 -15 6 -15 15 0 28 5 30 12 2 6
26 12 53 14 l49 2 -28 -23 c-18 -14 -24 -25 -17 -29 20 -13 1 -26 -27 -20 -18
4 -23 3 -14 -4 8 -5 12 -15 11 -23 -7 -31 21 -59 56 -59 19 0 35 5 35 10 0 6
30 10 70 10 60 0 114 12 130 30 3 3 18 11 33 18 16 7 25 17 21 23 -4 8 -9 7
-15 -2 -6 -11 -14 -11 -42 -1 -48 17 -57 15 -57 -12 0 -30 -26 -41 -42 -17 -7
10 -24 21 -38 25 -19 6 -21 5 -10 -3 12 -8 12 -13 2 -23 -9 -9 -12 -8 -13 7
-1 11 -1 28 0 37 1 10 -7 18 -21 20 -31 4 -34 31 -6 43 13 6 24 20 26 33 4 27
22 29 22 2 0 -23 23 -36 68 -38 37 -3 37 -3 18 43 -12 28 -12 35 -2 35 7 0 20
-18 29 -40 10 -27 12 -40 4 -40 -8 0 -8 -3 0 -11 7 -7 20 -9 30 -5 15 6 15 9
3 17 -12 9 -12 10 3 5 10 -3 28 1 41 9 12 8 25 13 28 10 2 -3 4 22 4 55 -1 33
-7 65 -14 72 -9 9 -8 16 5 30 16 18 15 20 -12 44 l-30 24 30 25 c38 32 50 27
49 -19 -1 -20 3 -36 7 -36 5 0 16 -11 24 -24 14 -20 14 -28 3 -45 -9 -16 -10
-23 -1 -32 9 -9 13 -6 18 13 3 13 17 32 31 42 30 23 33 50 4 41 -14 -5 -20 -2
-20 9 0 12 11 16 45 16 25 0 45 4 45 10 0 5 11 12 25 16 26 6 35 24 12 24 -8
0 -24 9 -36 20 l-23 19 25 6 c14 4 31 4 36 0 6 -3 11 -1 11 4 0 6 -18 14 -40
17 -25 4 -40 12 -40 21 0 10 6 12 20 8 21 -7 50 9 50 27 0 6 -11 8 -25 6 -18
-4 -26 0 -31 14 -3 11 -17 24 -30 30 -27 13 -41 45 -25 61 8 8 22 5 52 -11 22
-12 48 -22 57 -23 11 0 12 -2 4 -6 -17 -7 -5 -23 18 -23 11 0 24 -9 30 -20 12
-22 27 -25 50 -9 11 8 12 12 3 16 -7 2 -13 11 -13 18 0 7 -6 15 -12 18 -7 2
-10 8 -6 12 8 9 38 -18 38 -34 0 -14 57 -14 62 -1 2 7 15 6 35 -2 28 -11 35
-10 50 5 15 15 15 18 1 34 -11 12 -14 29 -11 52 5 27 1 37 -17 51 -23 17 -60
16 -60 -2 0 -5 -8 -4 -19 2 -11 5 -28 10 -38 10 -21 1 -58 46 -43 55 5 3 23
-1 39 -10 28 -14 61 -12 61 5 0 4 -11 11 -24 14 -35 9 -38 45 -6 73 14 12 38
33 54 47 16 14 35 26 42 26 23 0 16 38 -8 46 l-23 7 25 9 c16 6 34 5 53 -3 24
-10 32 -10 41 2 6 8 18 14 26 14 16 0 60 60 60 81 0 8 -9 14 -20 14 -11 0 -23
7 -26 15 -4 8 -15 15 -25 15 -10 0 -19 7 -19 15 0 15 -21 21 -33 8z"/>
<path d="M12150 6896 c0 -8 7 -22 16 -30 8 -9 11 -16 5 -16 -6 0 -11 -9 -11
-19 0 -11 -4 -23 -10 -26 -18 -11 -11 -25 13 -25 13 0 17 -3 10 -8 -6 -4 -14
-23 -18 -43 -6 -34 -5 -37 22 -41 15 -3 36 -9 46 -13 14 -6 17 -1 19 26 2 52
-1 72 -14 80 -9 6 -8 12 2 24 12 15 12 19 -2 29 -9 7 -18 25 -20 41 -2 24 -8
31 -30 33 -20 2 -28 -1 -28 -12z"/>
<path d="M80 6409 c0 -8 -13 -10 -37 -6 -30 5 -34 4 -20 -4 18 -10 18 -12 -2
-25 l-21 -15 0 -2139 c0 -1218 4 -2140 9 -2140 4 0 46 6 92 14 46 8 129 20
183 26 54 6 113 17 130 24 53 24 68 26 257 31 214 5 336 12 399 21 25 3 77 7
115 9 77 3 147 9 340 30 72 8 220 24 330 35 110 11 241 25 291 31 135 16 627
16 689 0 46 -12 235 -18 635 -21 176 -1 501 -23 740 -50 366 -42 597 -73 750
-101 154 -28 339 -68 390 -85 54 -17 74 -18 99 -3 15 10 22 8 40 -10 11 -11
26 -21 31 -21 18 0 10 18 -17 38 -17 12 -23 23 -18 32 6 10 10 10 19 -2 6 -8
19 -19 29 -24 10 -6 25 -26 35 -44 9 -19 29 -41 44 -49 24 -14 30 -14 62 2 40
19 66 14 66 -13 0 -22 14 -34 70 -56 47 -19 118 -60 184 -106 21 -16 44 -28
49 -28 6 0 55 -18 108 -40 54 -22 105 -40 114 -40 9 0 26 -6 38 -14 12 -8 56
-19 97 -25 129 -18 203 -36 262 -63 32 -15 103 -36 158 -48 152 -31 214 -46
236 -57 10 -6 37 -14 59 -17 22 -4 63 -18 92 -32 28 -13 59 -24 68 -24 9 0 40
-6 68 -14 29 -7 88 -19 132 -26 44 -6 136 -24 205 -40 232 -53 435 -88 512
-89 43 -1 89 -6 104 -11 14 -6 39 -10 55 -10 27 0 29 3 29 39 0 29 -6 42 -22
54 l-23 15 20 39 c17 31 25 37 45 35 33 -5 86 -57 93 -91 3 -15 25 -51 47 -80
36 -45 46 -52 69 -49 15 2 33 -2 40 -9 6 -7 33 -13 59 -13 l47 0 -74 71 c-40
38 -75 68 -78 66 -2 -3 5 -21 16 -40 l20 -36 -25 11 c-13 6 -27 22 -29 35 -3
13 -8 35 -11 50 -3 14 -14 38 -25 51 -10 14 -19 31 -19 38 0 8 -3 14 -7 14
-13 0 -63 47 -63 58 0 6 -7 26 -16 45 -15 31 -15 35 7 71 18 31 23 54 23 120
1 76 2 81 24 84 12 2 22 -2 22 -8 0 -7 -7 -10 -15 -6 -16 6 -20 -11 -7 -30 10
-16 49 -27 56 -15 4 5 -2 15 -11 21 -16 10 -16 11 5 7 15 -4 22 0 22 9 0 8 12
19 28 25 26 10 26 11 8 25 -11 8 -26 14 -33 14 -7 0 -13 5 -13 11 0 6 7 8 16
5 13 -5 15 -1 11 19 -3 21 -1 25 12 20 13 -5 14 -4 3 7 -11 11 -16 10 -28 -6
-14 -20 -14 -20 -29 0 -21 28 -18 35 13 28 18 -4 23 -3 14 4 -11 7 -10 11 4
16 10 4 21 1 25 -5 12 -20 31 28 20 50 -13 23 -58 36 -76 21 -11 -9 -17 -7
-27 9 -16 26 -45 27 -52 3 -3 -9 -1 -33 4 -52 12 -43 13 -100 1 -100 -14 0
-19 21 -27 109 -4 51 -12 84 -20 89 -9 5 -11 17 -5 43 5 21 4 43 -1 53 -5 9
-7 20 -4 25 10 16 -5 39 -30 45 -14 4 -24 14 -24 24 0 9 -9 23 -20 30 -15 9
-20 23 -20 57 0 25 5 45 10 45 13 0 13 67 -1 75 -5 4 -14 18 -19 31 -5 13 -15
24 -21 24 -6 0 -8 -7 -5 -16 3 -8 2 -12 -4 -9 -6 4 -20 3 -31 0 -16 -5 -19
-12 -15 -30 5 -18 0 -28 -16 -40 -22 -15 -23 -14 -30 16 -3 18 -4 48 -1 68 13
89 5 159 -17 146 -8 -5 -8 -11 0 -20 15 -18 -21 -40 -37 -24 -12 12 -20 -16
-27 -94 -3 -31 -1 -45 6 -41 14 9 28 -15 28 -46 0 -15 5 -31 12 -38 7 -7 13
-40 14 -75 0 -34 4 -70 8 -79 12 -26 -9 -22 -39 7 -29 30 -31 35 -10 35 8 0
15 5 15 10 0 6 -6 10 -14 10 -8 0 -22 7 -30 16 -16 16 -41 10 -31 -7 4 -5 1
-9 -5 -9 -7 0 -9 8 -5 19 7 22 -8 34 -45 39 -14 1 -30 10 -37 19 -8 10 -21 14
-37 11 -23 -5 -25 -3 -19 21 10 43 36 70 65 71 14 0 34 3 43 6 37 15 -49 36
-150 38 -55 2 -108 6 -117 10 -15 7 -18 3 -18 -19 0 -25 -2 -27 -32 -21 -18 4
-49 8 -69 10 -40 4 -84 24 -74 34 3 4 23 6 43 5 l37 -2 -30 10 c-16 6 -40 10
-52 10 -39 -1 -73 17 -73 39 0 21 14 27 25 10 8 -13 45 -13 45 0 0 6 -11 15
-24 20 -13 5 -27 13 -30 19 -4 6 -13 8 -21 4 -11 -3 -13 -1 -9 10 4 12 -5 16
-48 20 -29 3 -66 5 -81 5 -79 0 -115 20 -86 49 15 15 -11 43 -38 43 -24 0 -43
19 -43 41 0 9 -7 20 -16 23 -8 3 -13 10 -10 15 15 23 -14 59 -61 77 -26 10
-70 31 -96 46 -56 33 -57 33 -57 13 0 -8 5 -15 10 -15 6 0 10 -3 10 -8 0 -4
-18 -6 -40 -4 -22 2 -40 8 -40 13 0 5 -7 9 -15 9 -8 0 -15 7 -15 17 0 15 2 15
19 -1 23 -21 40 -4 20 21 -7 8 -18 25 -24 37 -6 11 -18 21 -26 21 -9 0 -25 7
-35 15 -16 13 -17 13 -9 0 6 -11 4 -11 -11 2 -21 18 -146 39 -188 31 -16 -3
-31 -1 -35 4 -12 19 -48 24 -60 9 -11 -13 -8 -16 16 -21 48 -11 53 -14 53 -30
0 -8 -8 -15 -18 -15 -11 0 -24 -11 -30 -25 -15 -33 -15 -35 3 -35 8 0 15 -7
15 -15 0 -8 -6 -15 -13 -15 -15 0 -47 35 -47 51 0 8 -4 8 -15 -1 -17 -14 -35
-5 -35 19 0 9 -5 22 -12 29 -9 9 -8 12 4 12 9 0 20 9 23 21 4 12 12 18 21 15
19 -7 18 4 -3 19 -14 11 -20 10 -30 -4 -10 -13 -12 -14 -13 -1 -1 17 -50 81
-50 64 0 -5 4 -14 9 -20 12 -12 22 -104 11 -104 -4 0 -13 7 -20 15 -7 9 -28
23 -46 31 -19 9 -34 21 -34 28 0 6 -13 19 -29 28 -24 13 -29 13 -24 2 3 -8 9
-14 13 -14 4 0 10 -8 13 -19 4 -17 1 -17 -34 -8 -22 5 -39 13 -39 17 0 5 -20
20 -45 35 -33 19 -47 34 -52 56 -7 39 -21 46 -39 20 -18 -26 -32 -27 -30 -4 1
12 -7 19 -24 21 -14 2 -33 11 -42 19 -9 8 -22 12 -27 8 -7 -4 -14 6 -18 25 -4
21 -14 35 -29 41 -13 4 -24 13 -24 19 0 5 -11 10 -24 10 -22 0 -71 30 -88 55
-28 37 -31 -91 -7 -250 13 -91 8 -113 -17 -76 -15 21 -17 21 -35 5 -10 -9 -19
-12 -19 -7 0 6 -27 42 -60 79 -98 113 -133 150 -127 132 4 -10 2 -18 -3 -18
-6 0 -10 7 -10 15 0 9 -7 18 -15 21 -8 4 -15 15 -15 25 0 10 -4 19 -9 19 -5 0
-12 14 -16 30 -4 17 -13 30 -22 30 -9 0 -13 6 -9 15 4 11 -3 19 -19 25 -14 5
-25 14 -25 20 0 5 -7 10 -15 10 -8 0 -15 8 -15 17 0 22 -50 65 -67 59 -8 -3
-13 2 -13 14 0 22 -16 27 -23 8 -3 -7 -5 5 -5 28 0 40 2 42 54 65 47 21 54 27
52 49 -2 20 -12 28 -46 39 -28 8 -47 22 -54 37 -13 27 -28 32 -28 8 0 -8 5
-12 10 -9 6 3 10 0 10 -7 0 -8 -8 -15 -17 -16 -10 -1 -27 -3 -38 -4 -17 -3
-20 2 -19 29 2 32 2 32 -19 12 -25 -23 -63 -25 -71 -2 -6 15 -8 14 -20 -2 -9
-13 -15 -15 -20 -7 -8 14 -26 15 -44 4 -16 -11 4 -148 25 -174 23 -26 90 -34
114 -12 16 15 23 15 43 4 14 -7 34 -10 45 -7 14 3 18 1 14 -9 -3 -8 -11 -14
-18 -14 -22 0 -23 -23 -4 -49 11 -13 19 -32 19 -41 0 -17 17 -63 47 -128 12
-25 13 -36 4 -45 -8 -8 -11 -6 -11 9 0 15 -3 14 -14 -8 -13 -25 -12 -32 15
-86 29 -59 49 -138 49 -197 0 -18 7 -38 15 -45 8 -7 15 -16 15 -21 0 -5 -7 -9
-15 -9 -15 0 -33 16 -67 58 -10 12 -29 22 -42 22 -13 0 -23 6 -22 13 2 20 -16
23 -27 5 -14 -21 9 -51 33 -43 9 3 24 -3 35 -15 22 -24 13 -39 -11 -19 -15 12
-16 12 -10 -8 8 -26 -11 -42 -21 -16 -4 10 -21 36 -40 57 -24 29 -30 43 -22
52 14 17 -4 49 -28 49 -12 0 -19 10 -23 29 -6 34 -22 43 -40 21 -13 -15 -40
-21 -40 -8 0 4 9 17 21 29 17 18 19 26 10 43 -7 12 -17 21 -23 21 -5 0 -24 15
-42 33 -17 18 -39 39 -49 46 -15 12 -17 12 -11 -4 6 -15 3 -16 -27 -10 -38 8
-64 25 -64 40 0 12 -40 65 -49 65 -3 0 -6 -7 -6 -15 0 -8 -4 -15 -10 -15 -5 0
-10 5 -10 10 0 6 -7 10 -15 10 -8 0 -15 -4 -15 -10 0 -16 -14 -12 -42 15 -27
25 -81 65 -149 110 -23 15 -45 22 -58 18 -15 -4 -21 -1 -21 10 0 44 26 61 50
32 7 -8 30 -20 51 -25 22 -6 39 -15 39 -20 0 -6 6 -10 14 -10 7 0 19 -7 27
-16 7 -8 21 -13 31 -11 10 3 16 1 12 -4 -8 -14 18 -11 50 6 15 8 41 15 56 15
l28 0 -15 40 c-9 22 -24 42 -34 45 -20 7 -25 21 -9 27 5 2 7 13 4 26 -5 17
-11 21 -25 17 -11 -4 -19 -3 -19 2 0 12 -56 44 -64 36 -3 -3 -1 -12 5 -19 7
-8 7 -14 -1 -19 -5 -3 -10 1 -10 9 0 10 -9 16 -21 16 -16 0 -19 -4 -14 -22 4
-17 4 -19 -3 -9 -7 10 -20 12 -47 7 -32 -6 -36 -5 -33 11 2 13 14 19 41 21 43
4 47 13 12 36 -19 12 -30 14 -45 6 -15 -8 -24 -5 -47 16 -19 18 -35 24 -53 21
-14 -3 -46 -2 -72 2 -43 7 -48 6 -48 -11 0 -24 -16 -23 -37 2 -19 22 -43 26
-60 9 -9 -9 -19 -6 -41 10 -27 19 -31 19 -43 5 -12 -15 -52 -14 -96 3 -26 10
7 -34 36 -48 18 -9 21 -13 11 -16 -20 -5 -94 34 -78 40 20 7 -23 37 -44 31
-10 -3 -26 0 -35 6 -15 9 -14 10 11 8 17 -2 31 2 33 10 3 6 0 12 -6 12 -6 0
-11 9 -11 20 0 11 -6 20 -14 20 -8 0 -22 7 -30 15 -11 11 -21 13 -33 7 -10 -6
-51 -10 -91 -11 -40 0 -81 -5 -90 -10 -24 -12 -84 -12 -99 1 -7 6 -19 8 -27 5
-8 -3 -17 -3 -20 0 -11 11 -56 12 -53 1 1 -6 -4 -13 -10 -15 -7 -3 -13 0 -13
6 0 6 -16 11 -35 11 -20 0 -35 5 -35 12 0 6 -6 4 -14 -7 -11 -15 -22 -17 -70
-12 -32 3 -64 11 -72 17 -21 19 -184 1 -184 -20 0 -16 61 -19 101 -5 47 17 79
19 79 6 0 -13 -26 -21 -69 -21 -20 0 -41 -4 -47 -8 -5 -5 -40 -6 -79 -2 -38 3
-83 3 -100 -2 -16 -4 -46 -8 -65 -8 -19 0 -57 -12 -84 -26 -97 -52 -177 -75
-276 -81 -79 -4 -346 -11 -530 -12 -82 -1 -92 -29 -18 -50 24 -6 86 -25 138
-41 52 -17 126 -35 165 -41 38 -5 91 -17 116 -25 62 -20 184 -5 296 37 18 7
22 4 25 -14 2 -17 10 -22 33 -22 17 0 35 -4 42 -8 6 -4 15 -3 18 3 5 8 11 7
21 -1 8 -6 25 -8 40 -5 45 12 87 -43 47 -59 -17 -6 -17 -7 1 -21 22 -15 20
-16 -49 -18 -35 -1 -40 -4 -37 -23 3 -18 -2 -23 -20 -23 -13 0 -82 -6 -154
-14 -133 -14 -194 -33 -194 -61 0 -22 -14 -18 -51 13 -21 18 -66 36 -128 53
-53 14 -104 29 -113 34 -32 13 -20 -20 22 -61 22 -21 40 -43 40 -48 0 -5 7
-18 17 -28 9 -10 13 -21 8 -26 -4 -4 -10 -1 -12 6 -3 7 -38 45 -78 84 -43 42
-71 77 -68 85 3 8 -8 19 -30 28 -19 8 -37 21 -40 29 -3 8 -23 20 -44 26 -33
11 -59 27 -112 72 -8 7 -37 13 -65 15 -27 2 -54 7 -60 13 -5 5 -16 10 -24 10
-7 0 -32 13 -55 28 -23 16 -63 37 -89 47 -48 18 -63 35 -30 35 9 0 65 -7 123
-16 88 -14 118 -14 177 -4 66 11 104 31 88 47 -4 4 -10 3 -14 -2 -4 -6 -20
-11 -35 -12 -21 -1 -27 3 -23 14 3 8 6 17 6 19 0 2 10 4 22 4 21 0 21 0 -3 26
-13 14 -23 29 -21 32 2 4 -21 12 -50 18 -100 21 -117 44 -48 65 33 10 43 9 64
-5 14 -9 45 -16 68 -16 46 0 213 -8 213 -10 0 -1 12 -3 28 -5 19 -3 30 2 37
15 6 11 17 17 24 14 8 -3 17 -1 20 5 6 10 61 7 98 -5 12 -3 18 0 18 10 0 8
-13 17 -31 21 -18 4 -35 16 -41 30 -7 15 -16 21 -29 18 -13 -4 -19 0 -19 11 0
9 -5 16 -12 16 -6 0 -19 6 -27 14 -9 7 -27 17 -40 21 -20 6 -23 4 -18 -9 5
-14 3 -15 -13 -6 -24 13 -55 109 -40 124 15 15 12 26 -6 26 -8 0 -27 14 -41
30 -13 17 -33 30 -44 30 -12 0 -19 7 -19 20 0 25 -14 26 -38 2 -22 -22 -76
-21 -121 3 -37 18 -81 13 -81 -10 0 -18 -7 -22 -55 -30 l-40 -6 31 28 c17 15
34 36 37 47 6 16 3 17 -20 12 -24 -5 -25 -5 -9 5 15 9 16 13 5 20 -12 7 -12
10 -1 18 11 6 10 10 -3 15 -14 5 -11 12 21 41 21 19 41 35 45 35 4 0 5 15 2
34 -7 42 22 96 52 96 11 0 28 7 39 15 18 13 17 14 -7 12 -44 -3 -35 14 25 47
31 17 60 34 64 39 11 11 -31 8 -63 -4 -49 -20 -112 -20 -152 1 -22 11 -43 15
-50 10 -12 -7 -58 2 -161 31 -48 13 -327 22 -334 10 -4 -5 -2 -12 4 -16 14 -9
2 -25 -18 -25 -21 1 -56 29 -64 52 -4 9 -23 20 -43 24 -19 3 -38 11 -41 16 -3
5 -17 13 -30 18 -16 6 -22 14 -18 25 4 10 -5 26 -24 44 -28 25 -30 29 -16 43
14 14 10 20 -40 62 -30 26 -56 57 -58 69 -2 15 -17 28 -46 41 -27 13 -45 28
-48 43 -4 13 -14 23 -24 23 -18 0 -50 30 -50 48 0 6 -8 13 -18 16 -27 9 -63
46 -56 57 6 10 43 -9 74 -38 8 -8 30 -22 49 -31 35 -17 41 -25 60 -77 11 -29
14 -30 79 -32 131 -5 210 -11 221 -17 16 -10 14 10 -4 44 -9 17 -22 30 -29 30
-7 0 -19 7 -26 15 -11 13 -8 15 16 15 16 0 56 -9 89 -20 33 -11 100 -31 150
-46 49 -14 99 -32 110 -40 10 -8 25 -14 32 -14 23 0 14 19 -17 35 -16 8 -37
29 -45 45 -18 35 -16 37 16 10 81 -68 119 -105 119 -117 0 -7 26 -29 58 -50
31 -21 61 -41 66 -44 5 -4 5 -12 1 -19 -6 -9 -9 -9 -16 1 -4 7 -11 10 -15 6
-12 -12 21 -39 51 -42 19 -3 25 0 21 10 -4 10 2 11 26 5 16 -5 35 -13 41 -19
28 -22 149 -60 227 -71 47 -6 97 -15 112 -19 34 -11 43 -3 21 21 -15 17 -15
18 2 18 11 0 31 -11 45 -25 34 -33 143 -44 160 -17 9 15 12 15 26 -5 19 -26
44 -30 44 -8 0 17 16 20 25 5 3 -6 18 -7 32 -4 21 6 25 4 20 -8 -4 -12 5 -17
46 -21 28 -4 53 -5 55 -2 2 2 -16 13 -40 24 -23 11 -59 36 -77 55 -19 20 -43
36 -53 36 -10 0 -37 9 -61 19 -23 11 -57 22 -74 26 -21 4 -39 17 -49 34 -17
29 -66 61 -93 61 -9 0 -30 19 -47 42 -46 64 -81 98 -103 98 -45 0 -3 -93 48
-103 31 -6 61 -47 61 -84 0 -10 9 -29 20 -43 25 -32 25 -43 0 -35 -11 3 -20 2
-20 -3 0 -19 -41 1 -58 27 -9 14 -29 39 -45 55 -19 19 -27 36 -23 49 3 12 -4
28 -20 44 -13 13 -24 28 -24 33 0 6 -3 10 -7 10 -14 0 -33 53 -33 90 0 47 -30
75 -92 89 -26 6 -63 20 -83 31 -51 29 -85 24 -54 -7 19 -19 -56 -26 -88 -9
-73 40 -83 66 -24 66 33 0 42 -4 53 -27 7 -14 19 -28 26 -31 25 -8 11 27 -28
69 -33 36 -45 43 -70 41 -20 -3 -30 1 -30 10 0 8 -14 27 -30 43 -28 26 -33 28
-52 16 -23 -14 -30 -9 -73 52 -7 10 -30 25 -52 32 -25 9 -39 20 -41 33 -2 13
-13 23 -32 27 -19 4 -33 16 -42 36 -7 16 -20 29 -29 29 -9 0 -33 14 -54 30
-21 17 -45 28 -54 25 -19 -6 -70 35 -64 52 7 19 -16 53 -36 53 -23 0 -58 38
-66 72 -6 25 -62 78 -82 78 -4 0 -20 6 -35 14 -15 8 -40 17 -56 21 -17 3 -33
13 -36 21 -3 8 -18 14 -35 14 -26 0 -33 6 -50 46 -14 32 -26 45 -38 43 -10 -1
-37 4 -61 11 -32 10 -41 17 -37 30 5 14 -5 19 -56 29 -33 7 -64 10 -67 6 -3
-3 -11 9 -16 26 -8 24 -21 35 -51 45 -49 17 -45 16 -45 3z m5398 -3965 c2 -16
10 -51 18 -78 27 -95 16 -125 -34 -90 -13 9 -30 13 -38 10 -19 -7 -54 10 -54
28 0 7 11 23 25 36 14 13 25 30 25 38 0 26 33 93 44 89 6 -2 12 -17 14 -33z"/>
<path d="M9196 6217 c-11 -30 -21 -92 -24 -145 -4 -79 -2 -95 13 -112 18 -19
17 -20 -3 -20 -12 0 -22 6 -22 13 0 8 -11 24 -25 37 -23 22 -24 25 -9 41 14
16 14 18 -5 24 -12 3 -21 11 -21 16 0 5 -7 9 -16 9 -11 0 -14 5 -10 16 11 29
-11 54 -43 48 -16 -3 -39 0 -52 6 -17 10 -24 10 -27 1 -2 -6 -10 -11 -18 -11
-9 0 -14 -11 -14 -35 0 -39 -20 -47 -42 -17 -7 10 -21 21 -31 25 -30 11 -14
32 29 37 34 5 37 6 20 16 -12 7 -30 9 -48 4 -20 -6 -30 -5 -36 5 -4 9 -16 12
-29 9 -19 -5 -21 -11 -16 -38 6 -28 5 -30 -10 -17 -9 7 -17 20 -17 28 0 10 -9
13 -27 11 -23 -2 -30 -11 -41 -48 -7 -25 -13 -78 -12 -117 0 -54 -3 -73 -13
-73 -14 0 -31 -42 -42 -105 -4 -22 -13 -54 -20 -72 -13 -31 -14 -31 -57 -21
-23 6 -51 18 -60 26 -18 15 -48 10 -48 -8 0 -5 -7 -10 -16 -10 -12 0 -14 7 -9
29 5 24 2 32 -16 42 -27 14 -58 49 -59 66 0 13 -38 43 -55 43 -5 0 -21 -16
-34 -36 -20 -29 -26 -33 -33 -20 -11 19 -47 20 -71 2 -10 -8 -26 -12 -37 -9
-10 3 -32 -4 -48 -15 -38 -28 -162 -212 -162 -241 0 -20 -20 -50 -98 -148 -9
-12 -30 -40 -46 -62 -17 -23 -36 -41 -44 -41 -7 0 -25 -13 -39 -30 -13 -16
-31 -30 -39 -30 -8 0 -18 -10 -23 -22 -5 -13 -23 -36 -39 -52 -27 -25 -36 -28
-77 -24 -25 3 -48 2 -50 -3 -10 -15 -244 -41 -261 -28 -20 16 -123 -22 -145
-52 -11 -15 -33 -34 -49 -42 -25 -13 -31 -13 -41 -1 -6 8 -18 14 -26 14 -19 0
-113 -95 -113 -115 0 -19 -13 -19 -49 0 -16 8 -51 16 -77 18 -39 3 -53 0 -71
-17 -13 -12 -23 -28 -23 -37 0 -21 -26 -43 -40 -34 -6 4 -31 -3 -55 -14 -25
-12 -47 -21 -51 -21 -10 0 -84 -65 -84 -75 0 -5 -12 -22 -25 -37 -19 -22 -33
-28 -66 -28 -24 0 -62 -10 -90 -24 -30 -15 -51 -21 -55 -15 -11 19 -66 -3
-106 -42 -44 -42 -50 -44 -78 -29 -20 11 -69 -2 -81 -22 -4 -7 -22 3 -45 26
-37 36 -39 37 -48 17 -6 -15 -15 -19 -28 -15 -13 4 -18 0 -18 -15 0 -28 -48
-41 -65 -18 -9 12 -21 15 -48 10 -22 -3 -42 -1 -51 6 -10 9 -16 8 -25 -3 -17
-20 12 -40 48 -33 27 6 81 -10 81 -24 0 -10 -80 -7 -86 2 -3 5 -14 4 -25 -1
-30 -17 -56 4 -64 50 -7 40 -25 56 -25 23 -1 -24 -24 -53 -42 -53 -8 0 -23 -7
-34 -15 -28 -21 -84 -20 -84 2 0 13 3 14 12 5 21 -21 41 -15 33 11 -13 43 -14
72 -2 80 7 5 3 7 -11 4 -30 -7 -52 1 -52 19 0 23 -20 16 -30 -10 -20 -54 -45
-31 -70 64 -6 25 -21 59 -31 77 -11 17 -24 60 -30 94 -5 34 -19 75 -31 91 -19
27 -21 28 -38 13 -12 -11 -26 -14 -44 -9 -15 3 -52 3 -82 -1 -45 -5 -57 -11
-62 -27 -3 -13 -11 -18 -23 -15 -10 3 -23 -1 -30 -9 -6 -8 -20 -14 -29 -14
-10 0 -38 -22 -62 -49 -24 -27 -60 -56 -82 -65 -38 -16 -38 -16 -66 14 -35 37
-41 37 -62 0 -14 -24 -24 -30 -52 -30 -28 0 -34 3 -29 16 4 12 0 15 -22 12
-22 -2 -31 -11 -40 -37 -6 -19 -26 -47 -45 -63 l-34 -28 84 -2 c111 -2 110 -2
146 12 25 11 39 10 85 -3 30 -9 92 -19 139 -21 130 -8 125 -6 415 -124 28 -11
75 -27 105 -36 161 -43 182 -48 193 -37 6 6 20 11 32 11 16 0 17 -2 5 -10 -16
-10 -22 -7 60 -30 90 -24 248 -34 360 -21 131 15 232 14 288 -1 23 -7 42 -15
42 -18 0 -3 -18 -18 -40 -33 -36 -25 -38 -30 -27 -50 6 -12 20 -28 30 -36 11
-8 17 -21 14 -32 -3 -11 0 -32 6 -49 9 -25 7 -38 -15 -87 -15 -32 -29 -78 -33
-102 l-6 -43 28 6 c15 4 43 9 60 10 19 1 50 16 73 35 48 39 70 37 39 -3 -21
-26 -21 -31 -8 -55 11 -19 23 -26 44 -26 43 -1 73 -13 79 -33 6 -17 37 -38
108 -73 20 -11 63 -43 95 -72 92 -84 101 -88 210 -90 l96 -2 12 -42 c10 -35
10 -44 -1 -54 -9 -7 -12 -28 -8 -71 2 -34 6 -63 8 -65 2 -2 17 -5 32 -7 16 -2
30 -10 32 -19 3 -16 36 -13 59 5 7 5 21 7 33 3 15 -5 19 -12 14 -31 -5 -21 -3
-24 23 -24 17 0 34 8 43 20 8 11 20 20 28 20 7 0 23 7 37 16 20 13 27 13 45 2
18 -11 23 -11 35 5 19 26 106 38 145 19 16 -8 30 -21 30 -28 0 -17 0 -17 38 2
40 19 63 15 78 -14 16 -33 18 -34 50 -21 16 6 50 11 77 10 61 -1 120 -33 217
-121 41 -37 100 -83 130 -103 30 -19 68 -48 83 -65 16 -17 44 -33 63 -37 19
-3 34 -9 34 -14 0 -4 21 -22 46 -41 25 -18 59 -54 76 -81 18 -30 39 -51 54
-55 14 -4 38 -26 54 -49 50 -72 106 -105 126 -73 5 8 2 9 -10 5 -10 -4 -24 -1
-32 8 -8 8 -23 20 -33 27 -10 7 -25 27 -34 45 -9 17 -36 42 -59 55 -23 12 -44
30 -46 38 -4 12 -2 13 9 3 7 -7 26 -13 41 -13 36 0 38 27 3 36 -14 3 -25 11
-25 17 0 6 -6 2 -14 -9 -14 -18 -16 -17 -50 18 -20 20 -36 45 -37 55 0 11 -3
13 -6 5 -8 -20 -63 25 -57 46 5 14 4 14 -4 3 -8 -12 -15 -12 -41 -2 -17 7 -35
19 -41 26 -15 18 -2 44 19 38 10 -2 25 3 34 12 9 9 21 13 27 10 5 -3 10 0 10
8 0 8 -7 17 -15 21 -8 3 -15 12 -15 21 0 8 -4 15 -10 15 -5 0 -10 -13 -10 -30
0 -18 -5 -30 -13 -30 -7 0 -22 -8 -33 -18 -22 -21 -21 -21 -127 52 -54 36 -76
66 -41 52 9 -3 18 -6 20 -6 3 0 2 -5 -1 -10 -4 -7 3 -9 22 -5 22 5 25 4 13 -5
-12 -9 -10 -10 13 -6 15 4 27 2 27 -3 0 -5 -8 -11 -17 -14 -15 -3 -13 -6 9
-17 37 -17 82 2 103 43 8 17 14 31 13 32 -2 1 -13 8 -25 14 -19 10 -23 9 -23
-4 0 -8 5 -15 10 -15 6 0 10 -7 10 -15 0 -8 -9 -15 -20 -15 -11 0 -20 -5 -20
-11 0 -6 -7 -4 -15 5 -8 8 -24 18 -35 21 -26 8 -27 52 -2 57 14 3 13 5 -5 10
-13 3 -21 2 -20 -4 1 -5 -14 -11 -34 -12 -33 -3 -35 -1 -31 26 3 16 0 28 -7
28 -6 0 -11 7 -11 15 0 8 5 15 10 15 6 0 10 -4 10 -10 0 -5 5 -10 10 -10 6 0
10 7 10 15 0 9 -9 15 -25 15 -24 0 -25 1 -10 24 13 20 14 25 1 35 -11 9 -17 9
-28 -2 -11 -12 -19 -9 -52 26 l-39 40 24 18 24 19 -32 0 c-26 0 -33 4 -33 20
0 11 -4 20 -10 20 -5 0 -18 10 -30 22 -22 24 -29 98 -9 98 6 0 9 -6 6 -14 -3
-9 4 -21 19 -30 15 -10 24 -26 24 -41 0 -14 5 -25 10 -25 6 0 10 11 10 25 0
26 0 26 21 6 21 -19 64 -33 74 -23 3 3 5 16 5 29 0 16 4 23 13 19 6 -3 20 -9
30 -12 21 -8 22 -30 2 -38 -19 -7 -20 -35 -1 -42 9 -3 12 -12 9 -21 -5 -11 -3
-14 6 -9 8 5 10 18 7 32 -8 29 5 31 28 5 10 -11 28 -22 42 -25 26 -7 33 -26 9
-26 -12 0 -14 -7 -9 -27 8 -33 30 -53 59 -53 11 0 26 -9 33 -20 7 -11 20 -20
30 -20 11 0 13 -3 5 -8 -22 -14 3 -32 57 -40 33 -5 54 -13 53 -20 -2 -6 7 -26
20 -44 17 -25 28 -32 47 -30 14 2 28 10 33 18 13 22 38 5 31 -22 -4 -14 -2
-24 5 -24 6 0 8 -6 6 -12 -6 -16 66 -68 94 -68 12 0 21 -4 21 -10 0 -5 8 -10
19 -10 28 0 44 -26 37 -56 -7 -26 -7 -27 38 -22 41 5 44 4 33 -13 -23 -38 55
-129 111 -129 11 0 24 -5 27 -10 5 -8 11 -7 21 1 12 9 14 6 14 -20 0 -17 5
-31 11 -31 6 0 19 -10 29 -22 15 -19 20 -20 33 -10 12 10 16 10 19 0 3 -8 16
-5 44 12 21 14 46 25 54 25 8 0 15 6 14 13 -3 36 -5 42 -14 42 -6 0 -14 -10
-19 -22 -6 -16 -8 -6 -8 37 0 33 3 68 8 77 11 20 3 44 -17 52 -19 7 -64 -22
-64 -41 0 -8 -5 -11 -10 -8 -6 4 -8 10 -5 15 3 5 1 11 -5 15 -5 3 -10 0 -10
-8 0 -17 -22 -28 -36 -19 -5 4 -15 19 -23 35 -10 18 -20 26 -31 22 -26 -8 -50
5 -50 26 0 25 -29 35 -101 38 -11 1 -27 29 -49 84 -17 45 -37 88 -42 94 -15
18 -2 43 22 43 11 0 20 4 20 8 0 5 9 18 21 30 17 19 18 23 5 28 -8 3 -20 3
-26 -1 -21 -13 -9 15 17 40 29 27 43 31 43 15 0 -15 36 -12 50 5 7 8 21 15 31
15 11 0 19 5 19 10 0 6 -11 10 -24 10 -13 0 -29 7 -36 15 -7 8 -21 15 -31 15
-10 0 -16 5 -14 13 3 6 0 19 -5 27 -8 13 -11 13 -19 1 -7 -11 -10 -10 -15 6
-9 28 -42 56 -56 48 -8 -5 -8 -11 1 -21 6 -8 8 -21 3 -31 -4 -10 -8 -22 -8
-28 -2 -11 -38 -8 -46 4 -3 4 -22 17 -42 30 -39 23 -58 21 -58 -5 0 -19 -25
-13 -26 7 -3 36 -5 40 -21 35 -10 -3 -24 -2 -31 3 -12 7 -12 12 0 30 11 20 11
24 -6 37 -11 8 -27 14 -35 14 -9 1 -36 25 -60 55 -24 30 -49 55 -57 55 -7 0
-17 6 -21 14 -14 23 -50 29 -62 9 -9 -17 -11 -17 -33 5 -21 19 -27 20 -43 8
-30 -22 -12 -49 26 -41 24 6 30 4 27 -6 -3 -10 -26 -15 -74 -16 -62 -2 -71 -5
-91 -30 l-23 -28 0 26 c0 14 9 34 20 44 10 9 24 32 30 51 10 30 14 33 42 27
29 -6 31 -5 24 20 -5 23 -3 27 16 27 13 0 29 9 36 21 10 15 21 20 48 17 44 -3
56 13 49 72 -6 49 -9 50 39 -15 23 -31 41 -5 41 58 0 46 2 52 23 55 12 2 22 7
22 12 0 4 9 6 20 3 22 -6 48 -43 30 -43 -5 0 -10 -9 -10 -20 0 -11 -5 -28 -11
-38 -11 -17 15 -83 61 -157 10 -16 19 -40 19 -52 1 -12 5 -24 10 -27 5 -3 18
-26 29 -50 17 -36 25 -43 42 -39 22 6 25 24 9 54 -6 12 -8 28 -4 36 4 13 11
10 35 -18 16 -19 29 -28 30 -20 0 7 13 -1 30 -19 31 -33 53 -35 58 -7 2 11 -3
17 -17 17 -28 0 -34 15 -19 47 14 29 73 51 106 38 16 -6 16 -7 0 -16 -22 -12
-17 -56 10 -74 18 -13 24 -13 52 3 31 17 31 18 24 72 -4 30 -8 64 -9 74 -1 11
-7 22 -13 24 -6 2 -9 9 -6 17 4 9 16 12 40 8 26 -4 34 -2 34 10 0 9 -8 18 -17
20 -14 4 -13 5 4 6 45 2 58 67 16 77 -55 14 -46 48 9 37 22 -4 34 1 57 26 34
36 51 39 58 11 7 -25 25 -26 47 -1 11 12 15 27 11 44 -6 22 -1 29 37 53 55 35
80 35 117 0 27 -26 30 -27 40 -9 11 17 11 17 25 -1 14 -17 17 -16 52 18 20 19
41 33 45 30 5 -3 7 -10 4 -15 -7 -10 -3 -11 75 -13 41 -1 60 3 73 16 39 39 81
9 52 -36 -9 -13 -13 -31 -9 -40 9 -24 -22 -31 -45 -9 -15 14 -33 18 -73 17
-29 -1 -52 -5 -50 -8 1 -3 2 -24 2 -46 0 -34 3 -40 20 -40 12 0 33 11 48 25
16 15 30 21 36 15 14 -14 -10 -37 -49 -44 -41 -8 -44 -19 -11 -47 14 -12 22
-28 19 -39 -3 -10 0 -21 6 -24 6 -4 11 -16 11 -26 0 -11 5 -17 13 -15 8 4 12
-6 13 -30 0 -27 -3 -35 -18 -35 -10 0 -18 -4 -18 -10 0 -5 9 -10 20 -10 23 0
25 -8 6 -32 -16 -22 -26 -23 -26 -4 0 8 -4 16 -8 18 -16 6 -52 76 -52 100 0
14 -7 31 -15 38 -8 7 -15 19 -15 26 0 8 -7 14 -16 14 -11 0 -14 -6 -9 -21 7
-20 4 -21 -20 -15 -26 7 -27 5 -22 -20 3 -18 -2 -33 -15 -46 -22 -22 -38 -17
-18 7 16 19 13 21 -25 31 -27 6 -28 5 -17 -8 11 -14 9 -19 -10 -32 -12 -9 -27
-16 -33 -16 -12 0 -45 -36 -39 -43 3 -2 -12 -3 -33 -1 -45 3 -73 -10 -73 -35
0 -11 -9 -21 -21 -24 -16 -4 -20 -11 -15 -24 9 -21 9 -21 7 -50 -1 -17 -7 -23
-25 -23 -14 0 -28 5 -32 11 -3 6 -15 8 -26 6 -10 -3 -35 1 -53 9 -69 28 -91
12 -72 -52 7 -22 19 -35 43 -44 18 -8 36 -20 38 -27 4 -9 1 -11 -6 -7 -8 5 -9
0 -4 -17 4 -13 8 -31 8 -39 0 -8 10 -26 22 -40 28 -32 76 -107 76 -119 0 -5
12 -16 26 -26 23 -15 28 -15 49 -1 17 11 23 24 23 56 1 39 -1 41 -21 36 -65
-18 -67 -18 -73 -1 -4 10 -1 21 7 26 11 7 12 12 2 29 -17 26 -16 30 5 30 10 0
25 -11 32 -25 13 -24 50 -35 50 -15 0 34 77 -17 93 -62 3 -9 17 -24 31 -33 23
-15 27 -15 66 5 22 11 44 29 47 38 4 9 13 23 20 30 7 7 13 20 13 29 0 11 6 14
24 9 18 -4 35 3 68 30 23 20 45 40 46 45 2 5 10 9 18 9 8 0 14 8 14 18 0 10 6
24 12 30 7 7 11 28 10 46 -2 19 1 37 7 41 6 3 11 19 11 35 0 25 5 31 39 40 21
5 47 9 57 8 52 -4 75 3 86 27 7 17 19 25 36 25 20 0 22 3 13 14 -8 10 -8 21
-1 41 6 15 8 31 4 36 -11 19 7 51 27 46 27 -7 45 18 28 41 -8 9 -18 20 -22 23
-12 9 42 28 92 32 47 5 61 18 61 60 0 16 5 27 14 27 8 0 17 16 21 37 4 21 12
41 18 45 7 5 3 8 -11 8 -13 0 -20 4 -17 10 7 12 52 13 59 2 9 -15 51 -6 54 11
2 9 -6 25 -17 36 -16 16 -17 20 -4 25 8 3 25 3 39 0 21 -5 24 -12 24 -53 1
-37 5 -49 25 -64 19 -14 29 -15 44 -7 11 5 27 7 35 4 16 -6 23 10 9 19 -5 2
-3 2 4 1 6 -2 17 4 24 12 13 16 60 13 127 -8 18 -5 35 -8 37 -6 2 2 8 22 13
44 8 38 8 41 -9 37 -11 -3 -19 -9 -19 -13 0 -12 -68 -33 -85 -26 -11 4 -12 12
-5 36 12 42 3 165 -15 200 -8 16 -15 51 -15 78 0 36 -6 57 -25 82 -14 19 -25
43 -25 54 0 12 -8 39 -18 61 -21 47 -24 146 -4 152 8 3 12 -8 12 -35 0 -30 6
-43 22 -54 12 -8 18 -19 14 -26 -10 -17 -24 -15 -29 6 -4 16 -5 16 -6 -1 0
-10 6 -20 14 -23 8 -4 15 -12 15 -20 0 -8 8 -15 18 -16 9 0 28 -2 42 -3 14 -2
32 -6 40 -9 20 -8 55 17 46 33 -4 6 -16 9 -26 6 -15 -5 -18 0 -16 29 1 19 -2
32 -6 30 -5 -3 -8 -11 -8 -19 0 -24 -33 -27 -54 -5 l-21 21 30 24 c23 19 27
27 18 36 -10 10 -14 8 -20 -7 -8 -23 -24 -38 -41 -42 -10 -2 -11 7 -6 33 5 27
3 36 -10 41 -10 4 -15 12 -12 19 6 17 -33 36 -61 31 -16 -3 -38 7 -68 30 -25
19 -47 34 -50 34 -11 0 -4 -25 12 -42 13 -14 14 -21 4 -31 -9 -9 -17 -5 -36
18 -30 37 -32 66 -5 83 29 18 27 82 -3 110 -13 12 -29 22 -35 22 -7 0 -12 9
-12 21 0 16 4 19 20 14 12 -4 20 -2 20 5 0 6 -14 13 -31 17 -35 7 -45 26 -61
116 -6 32 -16 63 -22 70 -14 13 -14 14 -20 102 -3 48 -11 71 -39 113 -32 49
-35 58 -30 110 5 54 3 59 -26 91 -30 32 -34 33 -86 28 -61 -6 -63 -4 -95 78
-11 26 -22 40 -33 39 -9 -1 -19 7 -22 17 -4 12 -16 19 -31 19 -18 0 -24 5 -24
23 0 43 -43 65 -53 27 -7 -26 -33 -26 -47 0 -11 21 -10 22 28 32 9 2 9 8 -3
26 -18 25 -58 31 -53 8 2 -8 -1 -14 -7 -13 -5 1 -10 10 -10 19 -1 10 -5 21 -8
25 -11 10 -67 7 -116 -6 -42 -11 -93 -3 -126 21 -7 4 -18 -14 -29 -45z m732
-1022 c34 -22 65 -48 68 -59 3 -10 55 -67 115 -127 96 -95 123 -129 104 -129
-3 0 -30 15 -59 34 -56 36 -93 69 -139 126 -22 28 -31 33 -44 24 -12 -8 -26
-8 -45 0 -36 13 -36 25 2 33 37 7 39 19 5 27 -14 4 -23 11 -20 16 4 6 -7 18
-24 28 -17 9 -31 23 -31 31 0 8 -8 23 -17 33 -16 18 -16 18 3 11 10 -4 47 -26
82 -48z"/>
<path d="M11507 6073 c-14 -4 -16 -8 -6 -19 9 -11 8 -15 -5 -20 -9 -3 -16 -15
-16 -25 0 -11 -7 -22 -15 -25 -7 -3 -22 -26 -31 -50 -9 -24 -22 -44 -28 -44
-18 0 -69 -57 -62 -69 14 -23 129 49 120 74 -9 21 12 19 21 -2 5 -10 7 -26 6
-37 -3 -24 15 -13 22 14 3 11 0 20 -6 21 -7 0 -2 4 10 9 15 6 20 15 16 29 -4
15 -1 21 11 21 9 0 16 -5 16 -11 0 -19 25 -3 26 17 0 27 15 57 33 71 15 11 15
13 0 28 -14 14 -18 14 -41 -5 -29 -22 -58 -27 -58 -9 0 7 8 18 18 25 18 14 7
17 -31 7z"/>
<path d="M3152 5624 c-24 -26 -30 -42 -26 -59 5 -19 -6 -35 -59 -88 -48 -49
-64 -72 -65 -93 0 -16 -4 -53 -7 -81 -6 -43 -11 -53 -27 -53 -13 0 -20 -9 -25
-31 -7 -36 -23 -44 -113 -54 -79 -9 -91 -17 -83 -56 4 -22 0 -36 -16 -53 -29
-31 -16 -39 63 -38 93 1 156 12 156 27 0 14 134 95 158 95 8 0 40 -17 72 -39
45 -31 60 -37 75 -29 10 6 42 8 73 5 59 -6 119 14 106 35 -4 6 -8 27 -9 47 -2
20 -4 41 -4 46 -1 6 -11 26 -23 45 -14 23 -23 54 -24 88 -1 29 -8 62 -16 75
-8 12 -20 41 -26 64 -9 31 -18 42 -35 45 -18 2 -23 10 -25 48 -4 51 -33 90
-67 90 -12 0 -35 -16 -53 -36z"/>
<path d="M11130 5360 c-13 -17 -30 -28 -37 -26 -7 3 -13 1 -13 -4 0 -6 -10
-10 -21 -10 -18 0 -19 2 -9 15 22 26 3 28 -31 4 -43 -30 -84 -51 -137 -68 -24
-8 -45 -18 -48 -23 -7 -11 47 -4 74 11 37 20 27 -8 -15 -46 -38 -33 -67 -41
-78 -23 -4 6 -11 8 -16 4 -5 -3 -7 -10 -4 -15 9 -13 -46 -78 -62 -72 -18 7
-16 43 3 43 9 0 14 8 13 18 -3 36 2 51 19 55 9 3 1 5 -18 6 -39 1 -69 -12 -51
-23 7 -5 4 -14 -9 -28 -27 -30 -25 -56 4 -64 14 -3 27 -12 30 -20 7 -18 42
-18 53 -1 10 16 76 57 92 57 7 0 -3 -13 -21 -30 -18 -16 -36 -30 -40 -30 -5 0
-17 -9 -27 -19 -11 -11 -26 -21 -33 -22 -26 -5 -78 13 -78 27 0 8 -9 14 -21
14 -11 0 -18 -4 -15 -8 3 -5 -6 -19 -19 -30 -34 -29 -33 -62 0 -62 28 0 34
-17 9 -27 -11 -4 -22 1 -30 12 -13 18 -15 18 -35 -4 -18 -19 -19 -25 -8 -32 8
-4 14 -13 14 -20 0 -15 75 -40 101 -34 11 2 29 -2 40 -9 13 -10 24 -11 36 -5
14 7 16 6 12 -6 -4 -10 0 -15 10 -15 10 0 16 9 16 23 0 30 15 51 30 42 7 -4
16 -2 21 6 7 11 9 10 9 -4 0 -12 6 -17 18 -15 9 2 16 12 15 22 -1 13 2 15 10
7 20 -20 29 -12 22 19 -4 20 -3 30 5 30 8 0 10 9 6 26 -6 24 -5 26 19 20 33
-8 31 3 -6 32 -28 23 -29 23 -29 3 0 -23 -16 -36 -25 -21 -3 5 -17 10 -31 10
-28 0 -33 26 -6 34 79 22 117 18 125 -14 7 -26 32 -25 57 0 11 11 20 16 20 10
0 -5 11 -17 25 -26 20 -13 28 -14 39 -5 11 10 16 9 24 -5 8 -14 13 -14 33 -4
22 12 22 14 4 20 -13 5 -15 9 -6 14 9 6 8 11 -6 22 -17 13 -17 14 0 25 12 7
16 17 12 30 -5 14 -2 19 13 19 11 0 22 6 25 13 3 9 10 7 23 -5 16 -16 16 -18
2 -18 -15 0 -28 -19 -28 -41 0 -10 43 -12 54 -2 11 11 78 33 121 38 50 7 51 9
18 26 -20 11 -27 11 -30 2 -7 -19 -38 -16 -80 7 -21 11 -43 20 -51 20 -9 0
-11 13 -8 47 6 63 -6 83 -49 83 -40 0 -44 11 -12 33 17 12 18 16 6 16 -9 1
-26 -13 -39 -29z"/>
<path d="M3594 5107 c-26 -10 -30 -15 -21 -28 15 -24 1 -49 -26 -49 -30 0 -40
10 -27 25 8 9 6 15 -6 19 -24 9 -37 -7 -38 -46 -1 -18 -5 -38 -9 -45 -4 -6 4
-24 17 -40 18 -21 22 -33 15 -45 -7 -12 -3 -28 11 -55 11 -21 20 -50 20 -65 0
-26 3 -28 43 -29 23 -1 51 -3 62 -4 97 -14 136 -17 150 -11 15 5 14 11 -11 44
-28 35 -29 42 -30 142 0 105 -17 173 -47 192 -17 11 -67 8 -103 -5z"/>
<path d="M2484 5038 c-16 -7 -23 -22 -27 -56 -3 -26 -1 -53 5 -59 6 -7 11 -27
13 -45 2 -26 7 -34 25 -36 41 -6 85 8 104 34 18 26 18 26 -13 58 -17 18 -28
35 -25 39 4 4 -5 7 -20 7 -32 0 -47 28 -22 42 17 10 13 28 -7 27 -7 0 -22 -5
-33 -11z"/>
<path d="M19106 4963 c-4 -4 3 -15 15 -24 l22 -17 -22 -7 c-18 -5 -21 -12 -17
-30 3 -13 2 -26 -2 -29 -14 -9 -35 12 -38 37 -2 20 3 27 19 30 12 2 -1 5 -30
6 -59 1 -71 -14 -55 -71 5 -18 7 -37 5 -43 -1 -5 11 -11 29 -12 18 -1 36 -9
40 -18 5 -8 17 -15 28 -15 10 0 20 -5 22 -11 3 -8 11 -8 27 2 19 11 25 11 28
2 7 -19 20 -16 26 7 7 26 35 36 58 22 24 -16 29 -15 29 3 0 21 10 19 45 -10
l30 -25 -27 10 c-29 10 -36 2 -17 -17 6 -6 8 -21 4 -33 -5 -16 -12 -20 -28
-16 -12 3 -30 6 -39 6 -11 0 -18 8 -18 20 0 11 -6 20 -14 20 -9 0 -12 -7 -9
-21 3 -12 1 -24 -4 -28 -7 -4 -6 -18 3 -41 12 -33 13 -33 13 -8 1 35 21 48 21
13 0 -23 2 -25 21 -14 18 9 26 6 51 -18 l31 -28 -5 25 c-3 14 -8 32 -12 41 -9
20 30 69 55 69 26 0 24 -26 -3 -33 -22 -6 -22 -6 -3 -28 l20 -21 5 24 c6 24 9
25 73 27 29 1 37 5 37 20 0 10 -7 22 -16 25 -16 6 -16 8 0 24 25 29 19 35 -30
29 -33 -3 -47 -1 -51 9 -3 8 -14 14 -24 14 -24 0 -24 -9 -2 -26 10 -7 15 -15
12 -18 -7 -7 -76 20 -81 32 -8 20 -75 51 -97 45 -20 -5 -22 -3 -16 17 6 19 4
21 -14 15 -14 -4 -21 -2 -21 7 0 20 -63 72 -74 61z"/>
<path d="M11040 4780 c0 -11 -5 -19 -12 -17 -6 1 -14 -7 -16 -17 -3 -14 0 -17
12 -13 9 4 16 2 16 -3 0 -6 -5 -10 -10 -10 -6 0 -10 -8 -8 -17 2 -11 -7 -21
-24 -27 -31 -11 -33 -10 -42 21 -5 15 -1 27 14 41 12 11 17 23 12 26 -6 3 -24
-7 -41 -23 -27 -25 -29 -30 -15 -42 13 -11 13 -14 0 -27 -13 -13 -18 -13 -31
-2 -12 10 -19 10 -28 1 -8 -8 -9 -14 -1 -19 26 -17 36 -53 23 -83 -10 -27 -15
-29 -43 -24 -54 11 -66 16 -66 28 0 7 -10 18 -22 26 -21 13 -22 13 -10 -2 15
-17 8 -37 -11 -37 -7 0 -20 -9 -30 -20 -9 -11 -27 -20 -40 -20 -26 0 -83 -45
-68 -54 8 -5 72 0 101 9 8 2 65 9 125 16 141 15 135 14 168 29 18 9 27 21 27
36 0 13 5 26 10 29 6 3 10 15 10 26 0 20 15 26 25 9 10 -15 35 -12 35 5 0 8 4
15 9 15 5 0 12 8 16 18 5 14 4 15 -6 5 -30 -30 -63 -7 -52 35 2 11 0 23 -6 26
-15 10 -14 22 4 40 14 13 13 16 -5 26 -17 9 -20 8 -20 -10z"/>
<path d="M18703 4493 c-8 -3 -10 -15 -6 -35 6 -28 5 -30 -15 -19 -34 18 -44
13 -27 -13 9 -13 29 -29 45 -36 17 -7 30 -17 30 -22 0 -5 18 -8 39 -6 22 1 38
5 35 9 -7 11 33 21 56 14 11 -3 20 -2 20 2 0 14 -22 33 -38 33 -8 0 -25 9 -39
20 -14 11 -29 17 -34 14 -5 -3 -19 6 -31 19 -13 14 -28 23 -35 20z"/>
<path d="M10280 4066 c0 -8 -5 -16 -12 -18 -17 -6 54 -78 77 -78 12 0 15 -5
11 -16 -5 -13 -1 -15 17 -10 18 4 30 -1 47 -22 13 -15 25 -34 25 -44 2 -17 -2
-17 -87 -2 -27 5 -38 3 -38 -6 0 -7 -8 -2 -18 10 -17 21 -19 22 -57 6 -22 -10
-60 -19 -85 -22 -51 -6 -100 -24 -100 -38 0 -5 -10 -20 -21 -32 -19 -21 -20
-26 -9 -54 10 -24 10 -33 -1 -46 -11 -14 -10 -18 6 -30 10 -8 22 -14 26 -14 4
0 9 -7 13 -15 7 -19 -8 -19 -26 -1 -8 7 -26 14 -41 14 -24 0 -27 -4 -28 -37
-1 -20 -1 -39 -1 -42 1 -3 -13 -6 -29 -6 -21 0 -26 3 -17 9 8 6 -4 7 -32 3
-25 -3 -46 -10 -48 -15 -2 -6 -10 -10 -17 -10 -24 0 -46 -49 -44 -98 2 -41 5
-47 24 -47 14 0 21 5 18 13 -3 7 3 12 17 12 15 0 20 -5 17 -14 -3 -7 0 -22 7
-32 23 -34 28 -72 10 -82 -12 -7 -15 -15 -9 -28 4 -11 7 -25 6 -31 -1 -7 7
-13 18 -13 13 0 21 -9 26 -30 6 -26 11 -30 41 -30 19 0 34 -4 34 -10 0 -5 -18
-10 -40 -10 -28 0 -40 4 -40 15 0 8 -9 19 -21 26 -17 9 -24 7 -40 -10 -10 -11
-19 -33 -19 -48 0 -22 -2 -25 -10 -13 -8 13 -11 11 -16 -7 -4 -13 -10 -23 -15
-23 -5 0 -9 -4 -9 -10 0 -14 33 -13 47 1 9 9 11 7 7 -7 -3 -10 -23 -28 -44
-38 -30 -15 -43 -29 -56 -62 -9 -24 -22 -44 -29 -44 -17 0 -31 -19 -39 -55 -4
-19 -3 -25 2 -16 6 8 12 9 16 3 3 -5 -1 -13 -10 -16 -13 -5 -15 -15 -11 -50 4
-24 2 -58 -3 -75 -6 -22 -5 -31 3 -31 6 0 -3 -10 -20 -23 -35 -26 -31 -54 6
-42 12 4 21 2 21 -4 0 -6 -5 -11 -10 -11 -7 0 -7 -6 0 -19 14 -28 13 -30 -17
-43 l-28 -12 33 -4 c19 -2 32 -9 32 -18 0 -8 -4 -14 -9 -14 -5 0 -16 -21 -25
-47 -9 -27 -26 -55 -37 -64 -20 -15 -20 -16 20 -34 23 -10 41 -24 41 -32 0 -7
-3 -13 -7 -13 -16 0 -44 -63 -33 -74 18 -18 11 -35 -11 -29 -12 4 -25 0 -31
-8 -8 -11 -9 -10 -4 4 6 18 -7 22 -51 18 -13 -1 -23 3 -23 9 0 5 22 10 50 10
28 0 50 5 50 10 0 6 -4 10 -10 10 -17 0 -11 38 8 45 16 6 16 7 -2 21 -11 8
-37 14 -57 14 -21 0 -39 5 -41 12 -3 7 -21 12 -43 11 -26 -1 -34 2 -24 8 11 7
11 9 -3 9 -9 0 -21 -13 -27 -30 -13 -39 -28 -38 -44 2 l-13 33 -12 -33 c-13
-38 -37 -44 -30 -7 3 16 -2 32 -16 47 l-21 23 -3 -23 c-2 -12 -8 -22 -14 -22
-6 0 -8 9 -3 22 19 64 20 63 -26 62 -47 -1 -59 -15 -34 -40 16 -16 17 -46 3
-45 -5 1 -17 1 -28 1 -12 0 -20 7 -20 16 0 13 3 14 14 5 23 -19 29 6 9 34 -21
28 -33 32 -33 10 0 -8 -5 -15 -11 -15 -6 0 -8 7 -5 16 5 12 2 15 -9 10 -9 -3
-14 -2 -11 3 3 5 -4 19 -17 33 -17 18 -22 36 -22 76 0 29 3 52 7 52 5 0 8 5 8
11 0 7 -10 9 -26 5 -24 -6 -26 -5 -22 18 4 22 3 24 -13 15 -24 -12 -24 -21 0
-36 12 -8 17 -19 14 -32 -3 -10 3 -31 12 -45 15 -23 15 -26 2 -26 -8 0 -18 -6
-21 -12 -3 -7 -3 -1 0 15 5 20 2 27 -10 27 -18 0 -22 15 -6 25 23 14 9 27 -24
22 -26 -4 -43 1 -71 20 -28 19 -34 27 -24 34 20 12 5 21 -38 22 -21 0 -30 2
-20 4 17 4 25 23 9 23 -4 0 -14 16 -21 36 -17 47 -23 39 -15 -21 5 -35 15 -56
41 -81 18 -18 33 -38 33 -44 0 -5 6 -10 13 -10 6 0 23 -20 36 -45 13 -25 28
-45 32 -45 5 0 15 -13 24 -30 18 -35 30 -38 32 -9 1 12 4 23 7 26 6 6 76 -47
76 -57 0 -5 6 -15 13 -22 6 -7 22 -31 34 -53 12 -22 26 -41 32 -43 15 -5 14
25 -1 31 -7 2 -10 8 -6 11 6 8 28 -11 58 -49 14 -17 13 -18 -2 -12 -21 8 -21
7 -7 -30 8 -22 12 -25 20 -13 8 12 12 12 16 2 2 -6 8 -10 12 -8 4 3 25 -1 47
-9 l39 -14 -32 -1 c-18 0 -33 -3 -33 -8 0 -17 32 -52 47 -52 14 0 14 3 -2 20
-16 18 -16 20 -2 20 10 0 17 -7 17 -15 0 -8 5 -15 10 -15 6 0 10 7 10 15 0 9
12 20 28 25 15 6 37 15 49 21 11 6 26 8 32 4 15 -9 2 -28 -15 -21 -7 3 -18 -3
-23 -12 -6 -10 -11 -12 -11 -4 0 17 -20 15 -20 -2 0 -8 -12 -21 -27 -28 -27
-14 -39 -44 -20 -50 7 -2 32 -1 56 2 39 4 42 7 28 19 -25 20 -21 32 8 25 15
-4 25 -2 25 5 0 14 47 15 55 1 3 -5 19 -7 35 -3 27 5 30 3 30 -20 0 -14 5 -38
11 -54 6 -15 22 -66 35 -113 13 -47 31 -107 39 -135 8 -27 17 -63 20 -79 4
-17 21 -44 39 -61 19 -17 37 -41 41 -54 9 -31 64 -91 82 -91 8 0 13 -6 10 -13
-8 -22 30 -59 54 -52 22 7 92 -18 117 -42 36 -35 138 84 228 267 30 60 54 112
54 115 0 7 42 100 88 195 14 30 33 63 41 73 14 17 13 20 -8 36 -16 12 -21 23
-16 31 6 10 11 7 17 -11 l9 -24 25 30 c14 17 38 55 53 85 48 96 72 130 93 130
12 0 23 10 29 29 10 29 53 61 100 76 13 4 51 36 84 70 57 58 83 77 113 79 7 1
16 6 20 11 16 23 92 66 124 71 30 5 35 10 36 34 0 19 -7 31 -24 40 -22 13 -35
60 -16 60 7 0 13 24 14 60 1 8 -2 23 -7 33 -5 12 -3 17 10 17 11 0 15 -5 11
-15 -3 -8 -1 -15 5 -15 6 0 13 8 16 19 2 10 15 23 28 29 19 9 24 7 34 -14 10
-22 9 -25 -6 -23 -40 4 -49 -1 -29 -16 13 -10 17 -23 14 -44 -3 -17 -1 -31 4
-31 4 0 8 6 8 14 0 22 19 30 36 16 12 -11 12 -14 -1 -24 -11 -8 -16 -28 -17
-63 0 -43 -3 -52 -19 -55 -11 -2 -18 -7 -17 -13 2 -5 6 -9 9 -8 3 1 3 -25 1
-58 l-4 -59 32 11 c22 8 34 8 39 1 3 -5 19 -12 36 -14 l30 -3 -4 -81 c-3 -78
-2 -82 25 -103 51 -40 77 -22 93 69 6 31 10 35 36 35 20 0 33 6 37 18 9 21 39
19 46 -3 5 -13 3 -13 -12 -1 -45 37 -26 -42 31 -126 20 -29 39 -53 44 -53 12
0 11 17 -1 25 -15 9 -12 35 3 35 13 0 37 -60 37 -91 0 -27 104 -79 157 -79 7
0 16 18 19 40 8 52 19 58 52 28 49 -45 92 -70 110 -63 14 5 14 7 2 16 -13 8
-12 11 3 20 17 10 15 12 -15 29 -28 15 -33 23 -32 54 1 24 -3 36 -12 36 -7 0
-15 4 -19 10 -11 17 -13 115 -3 121 6 4 -2 7 -16 7 -15 0 -29 2 -32 5 -3 3 -8
33 -11 66 -3 34 -9 61 -13 61 -9 0 -23 40 -20 59 2 16 -20 5 -37 -20 -14 -18
-58 -33 -73 -24 -18 11 9 44 37 47 61 7 29 43 -45 51 -47 5 -57 10 -47 27 4 6
20 8 39 5 l31 -6 -1 78 c0 43 -4 96 -8 119 -5 31 -4 44 8 54 9 7 16 19 16 26
0 8 4 14 8 14 17 0 8 33 -15 56 -13 13 -20 29 -17 38 4 11 0 16 -14 16 -10 0
-30 8 -43 18 -13 10 -41 26 -61 37 -21 11 -38 25 -38 32 0 16 -32 17 -48 1 -9
-9 -12 -9 -12 -1 0 7 5 15 10 18 11 7 14 205 4 243 -4 12 -12 22 -18 22 -14 0
-54 42 -79 83 -22 35 -33 34 -46 -3 -9 -26 -14 -30 -36 -24 -14 3 -31 1 -39
-5 -16 -13 -46 -4 -46 14 0 7 9 15 20 18 19 5 19 7 -11 39 -33 35 -60 88 -52
101 7 12 -25 74 -42 81 -9 3 -15 18 -15 35 0 24 -5 32 -25 37 -19 5 -24 11
-20 25 7 22 2 23 -26 8 -11 -5 -45 -14 -76 -19 -31 -5 -63 -16 -73 -25 -9 -9
-34 -16 -54 -17 -33 -1 -36 -4 -36 -30 0 -22 -5 -28 -20 -28 -12 0 -33 -12
-47 -26 -20 -20 -30 -24 -43 -17 -8 6 -31 14 -50 18 -19 4 -39 11 -45 15 -5 4
-25 7 -43 7 -19 0 -37 5 -41 12 -4 7 -12 11 -17 10 -18 -4 -44 13 -44 30 0 24
-85 111 -108 111 -30 0 -37 18 -10 23 13 2 4 5 -20 6 -24 0 -50 8 -58 16 -19
19 -34 19 -34 1z m496 -756 c13 0 24 -4 24 -10 0 -5 -7 -10 -15 -10 -7 0 -18
-7 -23 -16 -10 -18 1 -93 19 -126 24 -45 29 -90 11 -107 -8 -9 -20 -17 -26
-17 -6 -1 -15 -2 -19 -3 -4 0 0 -10 10 -20 11 -11 35 -21 58 -23 31 -2 42 -8
50 -26 9 -20 15 -23 45 -18 23 4 30 2 20 -4 -12 -7 -11 -10 5 -16 38 -14 48
-54 14 -54 -12 0 -23 -8 -26 -19 -3 -10 -15 -21 -28 -24 -35 -6 -65 32 -62 79
1 22 -3 39 -11 41 -7 3 -10 -1 -6 -11 5 -13 -2 -16 -45 -16 -49 0 -51 1 -51
28 0 28 -26 88 -51 118 -11 13 -10 21 2 43 11 19 13 34 7 50 -5 15 -3 39 7 67
8 25 15 53 15 62 0 24 21 44 38 37 8 -3 25 -5 38 -5z"/>
<path d="M8815 3395 c-90 -27 -95 -29 -95 -48 0 -11 15 -35 34 -53 33 -32 35
-32 38 -12 5 32 28 35 28 4 0 -19 7 -29 24 -36 19 -7 24 -16 24 -39 -1 -20 9
-40 28 -60 31 -33 58 -35 111 -9 30 15 44 0 18 -17 -41 -29 -47 -37 -36 -48
10 -10 64 11 101 40 8 6 26 13 40 15 20 2 25 9 25 33 0 21 -5 30 -17 30 -9 0
-26 12 -37 27 -17 21 -29 26 -66 26 -25 0 -45 -4 -45 -9 0 -5 7 -9 15 -9 8 0
15 -7 15 -15 0 -10 -10 -15 -29 -15 -16 0 -36 -6 -44 -14 -11 -12 -15 -11 -27
8 -8 11 -13 29 -11 39 1 9 -3 17 -8 17 -6 0 -11 7 -11 15 0 9 -6 18 -14 21
-23 9 -41 61 -26 79 19 23 0 41 -35 30z"/>
<path d="M23767 2784 c-9 -9 4 -34 18 -34 7 0 15 -12 18 -27 4 -18 16 -32 34
-40 16 -7 59 -33 96 -57 l67 -44 0 39 c0 44 -18 68 -77 98 -21 10 -51 31 -68
45 -28 24 -73 34 -88 20z"/>
<path d="M13630 2469 c-7 -12 -18 -18 -26 -15 -8 3 -13 2 -11 -2 3 -4 -2 -14
-11 -22 -14 -13 -15 -12 -9 3 6 17 -3 18 -116 17 -116 -1 -201 -18 -218 -42
-3 -5 -38 -4 -77 2 -55 9 -76 9 -94 -1 -15 -8 -68 -13 -148 -14 -129 -1 -146
-6 -200 -51 -30 -26 -58 -36 -64 -25 -11 18 -67 21 -83 5 -19 -19 -9 -31 12
-14 15 12 45 8 45 -8 0 -12 -78 -54 -88 -48 -18 11 -168 15 -203 6 -37 -10
-89 -45 -89 -59 0 -13 42 -27 87 -30 39 -2 115 28 129 50 3 5 17 9 32 9 40 0
72 -52 72 -117 0 -31 9 -70 22 -99 17 -38 23 -71 25 -149 2 -83 6 -102 21
-115 11 -8 22 -22 25 -31 8 -25 66 -30 108 -10 20 9 42 14 50 10 8 -4 22 -10
32 -13 10 -3 17 -15 17 -31 0 -14 3 -25 8 -25 13 0 92 81 92 94 0 19 39 66 55
66 7 0 15 -10 17 -21 5 -38 31 -45 80 -24 23 10 50 26 58 34 25 27 96 125 103
144 4 9 18 22 32 27 14 5 25 14 25 20 0 5 10 10 23 10 16 0 18 3 8 9 -14 9 -4
38 26 73 9 10 13 25 9 34 -6 16 -8 15 -21 -2 -14 -18 -14 -18 -15 2 0 13 10
25 25 32 28 13 34 32 10 32 -19 0 -20 36 -1 47 8 4 16 17 18 28 2 11 10 19 17
17 8 -2 11 3 8 12 -7 18 9 32 46 41 33 9 44 24 26 36 -11 8 -10 12 5 24 26 20
36 19 36 -4 0 -11 5 -23 11 -27 7 -4 -2 -19 -22 -40 -56 -57 -26 -47 38 14 71
67 92 100 72 113 -11 6 -11 11 -1 21 16 16 15 28 -3 28 -8 0 -19 -9 -25 -21z"/>
<path d="M8650 2436 c0 -6 12 -22 27 -38 22 -23 24 -30 13 -43 -11 -13 -16
-11 -40 15 -34 36 -43 37 -68 5 -22 -27 -52 -33 -52 -10 0 8 -9 19 -21 25 -17
9 -23 8 -34 -6 -13 -18 -9 -48 5 -39 10 6 26 -14 33 -42 3 -16 1 -23 -9 -23
-20 0 -17 -13 6 -33 12 -10 20 -12 20 -5 0 6 10 -4 23 -23 15 -23 21 -44 19
-67 -4 -30 -7 -33 -29 -27 -22 5 -24 3 -18 -16 6 -18 78 -99 89 -99 2 0 7 10
11 23 6 22 7 21 17 -5 5 -16 16 -28 24 -28 8 0 14 -4 14 -10 0 -5 16 -27 35
-49 19 -21 35 -42 35 -46 0 -11 68 -121 107 -172 25 -33 32 -48 22 -53 -20
-13 -2 -42 22 -35 14 5 28 0 43 -14 20 -19 24 -20 36 -7 9 12 17 13 32 5 16
-8 23 -7 33 8 17 21 14 38 -6 38 -13 0 -14 5 -10 37 0 7 10 2 21 -10 l20 -22
21 21 c11 11 33 22 50 26 36 7 57 47 40 75 -7 12 -8 26 -1 43 12 31 4 52 -29
82 -31 27 -51 30 -28 5 18 -19 23 -42 10 -42 -5 0 -35 25 -67 55 l-60 55 22
20 c12 12 22 27 22 34 0 17 -24 38 -33 29 -4 -3 -22 10 -41 29 -19 20 -62 57
-95 83 -39 31 -61 55 -61 69 -1 12 -11 45 -24 75 -22 51 -27 56 -72 69 -26 7
-54 21 -61 30 -7 10 -13 13 -13 8z"/>
<path d="M2850 2117 c0 -25 -58 -77 -85 -77 -19 0 -29 -6 -32 -20 -3 -12 -18
-27 -34 -36 -16 -8 -29 -21 -29 -28 0 -7 -7 -19 -15 -26 -8 -7 -13 -21 -10
-34 4 -16 -1 -24 -20 -33 -14 -6 -33 -9 -43 -6 -19 5 -60 -42 -48 -55 3 -3 -2
-14 -11 -25 -17 -19 -17 -20 21 -53 21 -18 55 -37 74 -40 43 -8 531 1 554 11
34 14 26 52 -14 68 -9 4 -7 11 8 24 12 10 36 40 54 66 41 62 30 77 -33 48 -76
-35 -87 -26 -32 25 29 26 35 39 35 73 0 48 -19 55 -44 16 -21 -33 -39 -22 -31
17 7 28 5 29 -22 26 -22 -2 -29 -9 -31 -30 -2 -16 -6 -28 -10 -28 -17 1 -42
29 -42 48 0 44 -40 38 -57 -8 -6 -17 -15 -30 -21 -30 -16 0 -36 54 -33 88 2
28 0 32 -23 32 -14 0 -26 -6 -26 -13z"/>
<path d="M345 2019 c8 -23 1 -23 -75 -2 -53 14 -62 15 -77 1 -29 -24 -51 -28
-67 -12 -14 13 -18 13 -40 -1 -16 -11 -26 -13 -31 -5 -3 6 -11 8 -16 5 -5 -4
-9 0 -9 7 -1 7 -7 2 -15 -12 -19 -33 -20 -290 -2 -290 7 0 28 4 47 10 19 5 55
11 78 14 24 3 50 11 58 17 11 9 18 9 25 2 8 -8 21 -7 45 3 18 8 41 13 51 12
44 -3 73 3 73 16 0 10 13 13 49 12 27 0 53 -5 57 -9 5 -4 16 2 26 15 l18 23 0
-22 c0 -27 6 -29 26 -8 20 20 67 31 72 17 2 -7 17 -5 45 6 48 20 119 21 125 2
3 -7 0 -10 -5 -7 -5 3 -8 -6 -5 -23 3 -19 9 -27 18 -23 9 3 14 -2 14 -14 0
-16 9 -19 68 -20 37 -1 72 2 77 7 20 15 65 18 65 4 0 -10 6 -11 23 -5 12 5 22
15 22 24 0 9 4 19 8 23 4 4 7 -2 7 -14 0 -24 41 -35 100 -27 19 3 63 9 96 13
34 4 69 13 77 21 9 7 22 9 28 5 7 -4 18 1 26 11 7 11 13 14 13 8 0 -8 10 -9
32 -3 17 5 43 7 56 3 18 -4 29 -1 39 13 11 15 15 16 22 5 6 -9 16 -11 27 -6
11 4 37 9 59 11 22 2 51 6 65 10 22 5 23 7 7 15 -9 6 -17 14 -17 18 0 10 57 7
67 -3 14 -13 33 -5 33 15 0 11 4 18 9 14 6 -3 23 7 39 23 28 27 28 29 11 40
-25 16 -32 15 -26 -2 7 -16 -16 -24 -50 -18 -22 4 -33 32 -13 32 19 0 10 31
-12 39 -17 6 -24 5 -26 -6 -3 -11 -7 -11 -18 -2 -7 6 -22 8 -31 4 -16 -6 -15
-8 6 -19 14 -8 19 -16 13 -20 -16 -9 -40 3 -47 25 -5 15 -12 18 -33 13 -15 -4
-33 -11 -39 -17 -9 -6 -13 -6 -13 3 0 9 -10 11 -31 6 -18 -3 -38 -1 -45 5 -9
7 -19 7 -33 0 -28 -16 -51 -13 -51 5 0 12 -6 14 -32 8 -18 -4 -98 -9 -178 -10
-80 -2 -174 -4 -210 -5 -79 -2 -145 5 -183 20 -35 14 -47 14 -27 1 12 -8 11
-10 -5 -10 -24 0 -53 -30 -47 -49 3 -8 -1 -12 -9 -9 -8 3 -13 14 -11 26 2 11
-2 23 -8 27 -5 3 -10 1 -10 -4 0 -6 -4 -11 -9 -11 -5 0 -7 9 -4 20 4 14 0 20
-11 20 -9 0 -16 -8 -16 -20 0 -13 -7 -20 -19 -20 -11 0 -22 -8 -24 -17 -3 -12
-5 -9 -6 8 0 14 -6 30 -13 37 -17 17 -63 15 -99 -3 -27 -14 -30 -14 -35 0 -5
12 -14 14 -34 10 -14 -3 -46 -2 -69 4 -39 8 -41 8 -36 -10z"/>
<path d="M8660 1728 c0 -27 -6 -38 -25 -48 -14 -8 -23 -20 -21 -27 3 -7 -1
-13 -9 -13 -21 0 -19 17 5 47 22 28 29 76 8 55 -9 -9 -15 -9 -25 0 -10 8 -17
7 -28 -8 -19 -25 -19 -44 0 -44 18 0 18 -5 5 -30 -7 -13 -6 -19 5 -24 8 -3 15
-16 15 -29 0 -13 11 -44 24 -69 13 -25 29 -71 36 -102 9 -46 18 -61 47 -83 27
-21 36 -24 43 -13 5 8 14 10 26 5 11 -5 32 -9 48 -9 38 -1 54 -27 37 -59 l-13
-25 -35 34 c-18 19 -38 34 -44 34 -12 0 26 -56 45 -67 8 -5 15 -17 18 -28 2
-11 10 -20 18 -20 8 0 21 -4 29 -9 8 -5 16 -4 22 5 7 11 11 11 21 1 10 -10 10
-15 -2 -23 -13 -8 -11 -12 9 -29 25 -22 61 -27 61 -9 0 7 10 9 25 7 20 -4 23
-3 14 8 -16 19 -4 44 21 44 11 0 20 7 20 15 0 7 7 18 16 23 12 7 15 27 16 94
1 73 -3 93 -23 129 -22 40 -29 45 -86 59 -34 9 -65 19 -69 23 -4 4 -22 5 -39
1 -27 -5 -36 -1 -58 25 -25 30 -57 42 -57 21 0 -5 -7 -10 -15 -10 -18 0 -19
12 -4 27 8 8 7 13 -2 18 -7 5 -17 2 -23 -7 -15 -19 -44 -29 -51 -17 -4 5 1 12
10 15 11 5 15 14 11 30 -7 27 30 60 49 44 6 -5 17 -5 24 0 11 6 8 14 -14 34
-15 14 -34 26 -41 26 -7 0 -19 3 -28 6 -13 5 -16 -1 -16 -28z"/>
<path d="M708 1354 c-21 -6 -23 -15 -6 -32 9 -9 4 -12 -22 -12 -51 0 -82 -11
-76 -25 4 -12 -27 -29 -46 -26 -5 1 -8 -3 -8 -7 0 -4 23 -8 51 -9 58 -1 71 -9
45 -28 -18 -13 -18 -15 3 -48 26 -42 27 -60 1 -29 -17 21 -29 23 -151 27 -73
3 -135 8 -138 10 -12 13 -32 2 -42 -21 -7 -21 -6 -31 6 -44 20 -22 12 -27 -45
-30 -68 -4 -72 -3 -61 19 8 13 18 17 38 13 25 -5 26 -3 15 11 -18 22 -98 37
-193 37 l-80 0 3 -67 3 -68 35 -3 c42 -4 65 -22 29 -23 -71 -3 -64 54 -64
-499 l0 -495 355 1 c323 0 362 2 436 21 45 11 87 24 94 28 7 4 13 -1 17 -13 4
-17 16 -22 67 -27 34 -4 91 -4 127 -1 35 3 69 6 74 7 6 0 48 -3 95 -8 47 -5
99 -6 115 -2 29 6 28 7 -15 23 -8 3 5 3 30 0 28 -3 60 1 85 10 22 8 33 15 25
16 -8 0 -37 2 -63 4 -105 8 -72 29 88 56 28 5 57 10 65 12 8 2 16 -1 18 -7 1
-5 -8 -11 -20 -13 -13 -2 -30 -6 -38 -9 -26 -10 32 -21 60 -11 14 5 48 7 77 3
32 -4 54 -2 58 4 4 7 -3 11 -17 11 -34 0 -68 11 -68 22 0 5 21 8 48 7 26 -1
62 3 79 9 22 7 35 7 39 1 3 -6 22 -8 45 -4 45 8 52 -6 14 -31 -14 -9 -22 -20
-19 -25 7 -12 95 1 119 17 11 8 29 14 40 15 18 0 18 1 -3 10 -15 6 -30 5 -43
-2 -31 -16 -45 1 -18 22 l24 19 -32 0 c-32 0 -49 13 -39 29 7 11 84 -10 94
-26 8 -12 72 -23 72 -12 0 4 -9 11 -20 14 -33 10 -23 21 15 17 50 -6 68 3 56
27 -6 11 -19 18 -28 16 -59 -12 -83 -14 -83 -6 0 15 47 29 123 36 76 7 98 -1
55 -20 -30 -14 -35 -35 -8 -35 12 0 59 11 104 25 44 13 96 24 114 23 18 -1 35
2 38 5 11 10 -8 28 -23 23 -16 -7 -43 10 -43 25 0 5 19 9 43 9 24 0 52 7 63
15 17 13 11 14 -61 8 -44 -3 -82 -8 -85 -10 -2 -2 1 -12 8 -23 17 -28 -3 -34
-22 -6 -11 17 -22 23 -36 19 -12 -3 -20 0 -20 7 0 6 10 15 23 18 16 5 7 9 -38
18 -37 6 -65 7 -72 1 -7 -5 -17 -5 -24 -1 -8 5 -3 12 15 21 31 16 33 29 6 36
-31 8 -24 27 8 21 15 -3 45 1 67 8 38 13 88 8 120 -14 6 -4 17 -3 25 3 12 7
10 9 -7 9 -13 0 -23 5 -23 10 0 6 7 10 15 10 8 0 15 7 15 16 0 10 -6 14 -14
11 -20 -8 -192 28 -188 39 4 12 135 4 143 -8 4 -6 12 -7 18 -4 19 12 51 15 51
5 0 -12 57 -12 65 1 3 6 -5 14 -19 20 -37 14 -32 28 12 32 l37 3 -25 14 c-14
8 -44 14 -68 14 -26 0 -41 5 -39 11 5 15 87 28 170 29 63 0 67 1 67 23 0 12 2
28 5 36 4 10 -13 14 -76 16 -53 2 -78 -1 -74 -8 3 -5 16 -10 28 -10 12 0 28
-4 36 -9 9 -6 -5 -11 -45 -14 -32 -3 -72 -8 -88 -12 -19 -5 -31 -4 -36 5 -6
10 -12 11 -22 2 -9 -7 -26 -8 -50 -3 -19 5 -54 7 -77 5 -43 -3 -51 5 -25 27
10 8 18 9 22 3 10 -16 122 -12 122 3 0 17 12 16 36 -2 10 -8 33 -14 49 -14
l30 0 -30 13 -30 13 28 7 c15 3 39 8 53 11 20 5 24 10 19 25 -5 15 0 22 20 30
15 6 23 15 20 21 -4 6 -13 8 -21 5 -8 -3 -23 3 -34 14 -15 15 -33 19 -80 19
-53 -1 -62 -3 -70 -22 -7 -17 -9 -18 -9 -5 -1 9 -8 21 -17 26 -22 12 -7 21 53
29 26 3 51 11 55 17 5 8 11 7 20 -2 15 -15 28 -16 28 -2 0 6 -6 10 -14 10 -14
0 -29 24 -20 33 3 3 20 1 37 -4 43 -12 137 -12 117 0 -8 6 -18 8 -22 5 -11 -7
-50 15 -65 36 -8 12 -22 16 -40 13 l-28 -4 30 14 c17 8 37 12 45 9 8 -3 12 -2
9 2 -10 11 -113 38 -144 37 -16 0 -45 4 -64 10 -30 10 -36 9 -48 -7 -21 -29
-16 -44 15 -44 37 0 73 -26 54 -38 -19 -13 -129 19 -195 56 -58 33 -67 30 -67
-19 0 -19 -6 -20 -207 -13 -267 9 -348 16 -348 31 0 6 22 34 48 62 27 28 44
51 39 51 -5 0 -15 -7 -22 -15 -7 -8 -16 -15 -21 -15 -5 0 -6 7 -3 15 5 11 -1
15 -26 15 -18 0 -29 -4 -25 -10 3 -5 13 -10 21 -10 23 0 16 -19 -8 -24 -61
-14 -72 -11 -79 14 -5 16 -7 19 -8 7 -1 -10 -8 -20 -17 -24 -8 -3 -13 -11 -10
-18 5 -13 -14 -25 -40 -25 -22 0 -16 17 9 24 16 4 19 8 9 15 -11 7 -11 9 2 14
22 9 20 37 -1 37 -22 -1 -53 -23 -53 -39 0 -6 -4 -11 -8 -11 -5 0 -8 10 -8 23
1 13 -4 21 -13 19 -7 -1 -20 3 -29 10 -19 16 -214 20 -224 4 -4 -6 -37 -12
-73 -12 -56 -1 -65 1 -63 15 2 9 10 17 18 17 8 1 21 2 28 3 6 0 12 5 12 10 0
16 -38 23 -60 11 -19 -10 -21 -9 -18 12 3 22 1 23 -95 28 -54 3 -101 10 -105
16 -4 6 -20 16 -37 22 l-30 10 31 1 c17 1 56 -4 85 -10 53 -11 155 -13 172 -2
20 12 -53 35 -116 36 -37 0 -66 5 -64 10 2 6 72 9 170 8 99 -1 167 2 167 7 0
5 -10 12 -22 16 -30 8 -308 17 -330 10z m852 -360 c30 -4 63 -10 72 -15 10 -6
40 -7 68 -3 51 7 67 5 63 -8 -2 -5 16 -9 40 -10 23 -1 60 -2 82 -3 22 -1 49
-6 60 -12 11 -5 46 -9 78 -7 34 2 55 -1 52 -6 -4 -6 5 -6 20 0 15 6 31 7 37 4
6 -4 38 -6 72 -6 l61 1 -29 -16 c-31 -16 -114 -14 -316 7 -47 5 -114 12 -150
15 -78 6 -136 13 -171 20 -14 3 -51 7 -81 9 -62 4 -78 10 -78 33 0 12 7 14 33
9 17 -4 57 -9 87 -12z m-56 -67 c-2 -19 32 -41 83 -51 26 -6 34 -4 43 13 6 12
21 21 35 21 31 0 41 -16 14 -23 -12 -3 -19 -11 -17 -19 5 -15 50 -26 128 -32
74 -5 201 -37 194 -48 -3 -5 -13 -6 -23 -3 -15 7 -105 20 -197 31 -38 4 -45 1
-83 -37 l-41 -41 0 31 c0 25 -6 34 -27 42 -15 6 -44 18 -63 27 -19 9 -43 15
-52 14 -16 -3 -88 60 -88 78 0 10 34 18 70 16 17 -1 25 -6 24 -19z"/>
<path d="M67 1333 c-37 -2 -67 -8 -67 -13 0 -6 10 -10 23 -10 35 0 67 -11 61
-21 -3 -5 -23 -9 -45 -9 -39 0 -39 0 -39 -40 l0 -40 45 0 c31 0 44 -4 43 -12
-2 -10 11 -12 47 -9 63 4 75 11 44 25 -19 9 -3 12 86 14 69 2 111 -1 113 -8 6
-16 49 -12 56 5 3 9 19 15 41 15 34 0 46 12 25 25 -20 13 -9 25 23 25 17 0 38
4 45 9 29 18 -138 23 -213 6 -12 -2 -33 2 -49 10 -27 14 -139 37 -161 33 -5
-1 -40 -3 -78 -5z"/>
<path d="M2675 1300 c-207 -8 -111 -24 130 -21 55 0 180 -5 278 -12 115 -8
176 -9 174 -2 -5 15 -63 24 -182 26 -60 1 -130 5 -155 10 -29 5 -50 3 -58 -3
-9 -8 -16 -8 -24 0 -7 7 -17 11 -22 10 -6 -1 -69 -5 -141 -8z"/>
<path d="M2776 911 c-3 -5 1 -12 10 -15 29 -11 -4 -36 -50 -37 l-41 -1 30 -13
c17 -8 40 -14 53 -15 12 0 22 -4 22 -9 0 -6 13 -6 33 1 17 5 41 11 52 13 11 2
29 6 40 10 11 3 45 10 75 16 30 6 70 17 88 25 42 18 52 18 52 -1 0 -13 7 -15
38 -9 43 8 46 9 38 23 -8 12 -254 12 -279 -1 -11 -6 -23 -6 -30 0 -17 13 -125
24 -131 13z"/>
<path d="M22575 578 c-66 -4 -205 -14 -310 -23 -104 -8 -318 -19 -475 -25
-157 -5 -332 -12 -390 -15 -58 -2 -217 -9 -355 -15 -137 -6 -275 -14 -305 -19
-30 -5 -83 -6 -117 -3 -34 2 -136 -3 -225 -12 -500 -51 -844 -83 -1063 -101
-104 -9 -206 -18 -225 -20 -19 -2 -105 -9 -190 -15 -85 -6 -200 -15 -255 -21
-78 -7 -681 -21 -873 -19 -20 0 -31 -4 -27 -10 8 -13 -8 -13 -21 0 -5 5 -15 6
-24 0 -30 -19 7 -30 125 -39 101 -7 360 -8 360 -1 0 1 23 3 52 5 29 1 50 -2
47 -7 -3 -4 -12 -8 -20 -8 -8 0 -14 -5 -14 -10 0 -7 -97 -9 -297 -6 -193 2
-302 0 -310 -6 -9 -7 -17 -7 -25 -1 -7 6 -30 16 -51 23 -30 9 -41 9 -52 0 -8
-7 -15 -8 -15 -3 0 12 -201 14 -215 2 -13 -9 -80 -7 -91 4 -11 11 -44 8 -44
-4 0 -6 -6 -9 -12 -6 -7 2 -12 13 -10 24 2 17 -5 21 -49 27 -41 6 -55 4 -70
-10 -19 -17 -20 -17 -35 4 -16 23 -69 31 -76 11 -2 -7 -18 -7 -51 2 -26 6 -50
9 -53 6 -10 -9 6 -27 24 -27 9 -1 28 -7 42 -15 25 -14 25 -14 -10 -8 -19 3
-40 10 -47 15 -6 5 -24 13 -41 17 -23 7 -33 5 -46 -10 -19 -22 -35 -24 -42 -6
-4 11 -34 13 -140 9 -90 -3 -139 0 -148 7 -8 7 -37 10 -72 7 -43 -4 -51 -3
-29 3 25 7 21 9 -30 10 -42 0 -56 -2 -45 -9 12 -8 9 -10 -12 -10 -20 0 -26 4
-22 15 8 19 -31 21 -40 2 -5 -9 -7 -9 -12 1 -8 16 -41 15 -47 -2 -9 -22 3 -23
413 -52 293 -21 499 -32 740 -39 107 -3 248 -8 312 -13 69 -4 177 -2 265 4
167 13 296 2 286 -23 -4 -11 -16 -13 -44 -8 -42 7 -208 8 -279 1 -24 -2 -46
-9 -48 -15 -3 -8 42 -10 160 -7 89 2 196 5 236 5 79 1 93 12 35 27 -37 10 -17
11 229 15 10 0 28 -9 40 -21 18 -17 31 -20 63 -16 35 5 133 14 647 57 64 5
215 21 335 34 120 14 283 32 363 40 80 8 156 18 168 21 13 2 101 11 195 19 95
8 213 19 262 25 171 19 351 30 740 45 215 8 444 19 510 25 66 5 176 15 245 20
561 47 770 71 770 88 0 10 -12 12 -52 8 -186 -21 -680 -61 -863 -71 -49 -3
-133 -7 -185 -10 -52 -3 -140 -8 -195 -10 -251 -11 -361 -16 -515 -26 -267
-16 -424 -28 -445 -32 -38 -9 -141 -18 -235 -22 -52 -2 -171 -15 -265 -28 -93
-14 -235 -32 -315 -41 -80 -9 -201 -23 -270 -31 -242 -28 -520 -42 -520 -26 0
6 12 11 28 11 24 0 140 10 457 40 55 5 132 14 170 19 39 5 93 12 120 15 127
14 365 46 410 56 148 32 642 69 965 72 166 1 232 4 485 23 39 2 147 9 240 15
94 6 213 15 265 21 52 5 156 14 230 20 196 16 428 37 459 42 12 2 12 3 0 12
-9 7 -55 8 -134 3z"/>
<path d="M2641 475 c-25 -8 -70 -17 -100 -21 -31 -3 -75 -15 -98 -25 -23 -11
-53 -19 -67 -19 -32 0 -44 -19 -22 -35 18 -14 87 -12 154 3 49 11 57 17 57 40
0 13 8 16 33 14 22 -1 35 3 38 13 4 8 24 18 45 21 21 4 39 10 39 15 0 12 -27
10 -79 -6z"/>
<path d="M2123 86 c-50 -25 -58 -48 -13 -39 19 3 30 1 30 -6 0 -6 -12 -11 -27
-11 -55 -1 -129 -10 -158 -19 -20 -7 27 -9 149 -8 133 2 180 5 184 15 2 7 -5
12 -17 12 -25 0 -27 13 -4 35 14 14 14 18 2 26 -19 12 -26 11 -49 -3 -15 -10
-22 -9 -37 4 -17 15 -21 14 -60 -6z"/>
</g>
</svg>
